<svg version="1.1" id="Layer_1" xmlns="http://www.w3.org/2000/svg" xmlns:xlink="http://www.w3.org/1999/xlink" x="0px" y="0px"
	 width="100%" viewBox="0 0 2184 455" enable-background="new 0 0 2184 455" xml:space="preserve">
<path fill="#FDFDFE" opacity="1.000000" stroke="none" 
	d="
M1469.000000,456.000000 
	C979.333313,456.000000 490.166656,456.000000 1.000000,456.000000 
	C1.000000,304.333344 1.000000,152.666672 1.000000,1.000000 
	C729.000000,1.000000 1457.000000,1.000000 2185.000000,1.000000 
	C2185.000000,152.666672 2185.000000,304.333344 2185.000000,456.000000 
	C1946.500000,456.000000 1708.000000,456.000000 1469.000000,456.000000 
M449.322083,46.080791 
	C448.551117,46.365086 447.780182,46.649380 446.122345,46.857601 
	C443.763519,46.765018 441.404724,46.672436 438.907928,45.966873 
	C437.935730,46.303692 436.963531,46.640514 435.363770,47.386288 
	C433.591125,47.444965 431.818512,47.503639 429.949738,47.017128 
	C429.296631,47.322960 428.643494,47.628796 427.413910,48.358322 
	C425.817505,49.227932 424.221069,50.097542 421.961884,51.120018 
	C417.737000,63.356312 413.505402,75.590317 409.330139,87.843513 
	C409.235931,88.119965 409.781158,88.614304 410.071320,89.710091 
	C409.643311,90.795654 409.215302,91.881218 408.143341,93.086220 
	C407.764648,94.725067 407.385956,96.363907 407.037933,98.742950 
	C406.547394,100.395493 406.056885,102.048042 404.954834,104.027267 
	C402.136688,112.684715 399.318542,121.342155 396.648163,129.545593 
	C406.409668,129.545593 415.346466,129.545593 424.848358,129.722168 
	C425.232300,129.812057 425.616211,129.901932 426.398285,130.508575 
	C427.016266,130.542709 427.634277,130.576843 428.930023,130.885254 
	C431.832336,132.145859 434.734650,133.406464 437.809235,135.286118 
	C440.997375,137.935516 444.036865,140.796555 447.417755,143.171600 
	C450.473267,145.318069 453.901825,146.933456 457.755707,149.063034 
	C458.754669,149.495499 459.753601,149.927948 461.027466,151.003189 
	C463.099457,151.445770 465.171448,151.888336 468.016571,152.550186 
	C469.347260,152.730835 470.677948,152.911484 472.518524,153.734695 
	C478.009277,153.870499 483.500061,154.006302 489.929077,154.163742 
	C496.486877,154.163742 503.044678,154.163742 510.139984,154.163742 
	C511.150543,151.136002 512.290710,147.719955 513.998962,144.036011 
	C514.361084,142.357025 514.723267,140.678055 515.293701,138.293030 
	C515.726501,136.883881 516.159302,135.474747 517.182007,133.800537 
	C520.532043,122.967659 523.882080,112.134789 527.417847,100.835464 
	C527.441467,100.669792 527.465149,100.504112 528.047119,99.914787 
	C530.504822,92.387955 532.962585,84.861122 535.821045,76.107025 
	C527.401917,77.762344 520.679443,79.084076 513.467346,80.385307 
	C513.467346,80.385307 513.112061,80.722870 512.224854,80.464760 
	C509.055054,80.301674 505.885284,80.138580 502.270508,79.463684 
	C500.936859,79.117592 499.603210,78.771507 497.964935,77.855064 
	C493.165131,74.122772 488.365326,70.390488 483.142700,66.126053 
	C478.499146,61.662342 473.855621,57.198631 469.001495,52.076252 
	C463.696136,50.249996 458.390808,48.423740 452.904846,46.027039 
	C451.935089,46.024082 450.965302,46.021126 449.322083,46.080791 
M188.500931,168.388351 
	C166.010788,168.454193 143.520493,168.578430 121.030670,168.521912 
	C117.721008,168.513596 115.940079,169.351898 114.893677,172.748901 
	C111.952881,182.295944 108.610809,191.719315 105.432335,201.193253 
	C86.689240,257.059998 67.939644,312.924591 49.216312,368.797974 
	C47.023067,375.342957 44.977379,381.937378 42.626747,389.244110 
	C45.291481,389.244110 47.086155,389.244110 48.880829,389.244141 
	C129.347427,389.244629 209.814178,389.179443 290.280243,389.389313 
	C295.800385,389.403687 298.037109,387.620178 299.618347,382.560822 
	C309.551544,350.778015 319.782288,319.088257 329.908844,287.365875 
	C330.599945,285.200928 331.243683,283.020844 332.178894,279.968384 
	C291.267456,279.968384 251.126984,279.968384 210.394974,279.968384 
	C222.747055,242.441559 234.824203,205.749954 247.124176,168.381424 
	C227.096054,168.381424 208.298553,168.381424 188.500931,168.388351 
M400.499878,270.606659 
	C422.657745,270.606903 444.816620,270.498352 466.972565,270.705780 
	C471.054108,270.744019 472.724701,269.434326 473.940613,265.565491 
	C483.024292,236.662766 492.376129,207.844406 501.612366,178.989517 
	C503.461029,173.214081 505.174316,167.395309 507.152618,160.934814 
	C464.052856,160.934814 421.801514,160.934814 378.676453,160.934814 
	C390.617767,123.644753 402.338593,87.043129 414.283112,49.743008 
	C411.557404,49.743008 409.913788,49.742954 408.270203,49.743015 
	C372.450500,49.744404 336.630188,49.843788 300.811768,49.628941 
	C296.087891,49.600601 294.266724,51.132824 292.861664,55.541031 
	C270.720001,125.008125 248.378662,194.411575 226.106659,263.837158 
	C225.474533,265.807617 225.100647,267.860962 224.644241,269.721252 
	C225.501129,270.174164 225.787766,270.458313 226.074677,270.458618 
	C283.883057,270.521057 341.691437,270.563416 400.499878,270.606659 
M1576.711304,193.578751 
	C1576.193115,169.115845 1564.300903,153.237503 1540.953369,145.774368 
	C1525.131104,140.716675 1508.838501,140.115448 1492.470703,140.975769 
	C1440.974976,143.682465 1403.772339,167.511505 1384.758423,216.249390 
	C1376.843506,236.537399 1371.036621,257.661255 1364.580811,278.500946 
	C1359.020386,296.450409 1352.799805,314.223541 1351.776367,333.313446 
	C1350.346313,359.982849 1362.587158,377.800995 1388.282104,385.087006 
	C1408.688843,390.873505 1429.467773,390.739349 1450.269653,388.134430 
	C1495.224854,382.504822 1526.409180,358.229401 1542.673584,316.328888 
	C1552.478760,291.068787 1559.628052,264.775055 1567.892822,238.920853 
	C1572.515625,224.459305 1576.678223,209.887177 1576.711304,193.578751 
M1796.981934,215.398895 
	C1797.760010,211.647430 1798.610352,207.909286 1799.304688,204.142395 
	C1804.286377,177.114227 1791.409058,155.070343 1765.388184,146.089249 
	C1749.485474,140.600433 1733.019897,140.158447 1716.476074,140.992432 
	C1661.508301,143.763367 1623.076660,173.038452 1606.017456,225.373093 
	C1598.688110,247.858078 1591.939453,270.532043 1584.893188,293.109619 
	C1580.615234,306.816620 1577.381714,320.670349 1576.354248,335.096283 
	C1574.609253,359.595001 1586.836426,378.318054 1610.504395,384.856384 
	C1638.854614,392.688110 1667.276611,391.220795 1695.369507,383.316223 
	C1720.641602,376.205444 1740.511108,361.506226 1754.066040,338.879761 
	C1766.114136,318.768494 1770.828735,295.896515 1777.747925,273.868347 
	C1777.789551,273.736053 1777.674316,273.554565 1777.589600,273.234894 
	C1776.854248,273.101379 1776.049683,272.828339 1775.244995,272.827545 
	C1747.420776,272.800781 1719.596313,272.745697 1691.773560,272.942810 
	C1690.265137,272.953491 1687.983276,274.807343 1687.411865,276.315033 
	C1685.232300,282.066772 1683.586670,288.022278 1681.778931,293.913116 
	C1680.205933,299.039276 1678.683594,304.181000 1676.859741,310.243896 
	C1686.395874,310.243896 1694.769165,310.243896 1703.405273,310.243896 
	C1703.266479,311.589996 1703.348633,312.282318 1703.109009,312.835205 
	C1702.448242,314.360077 1701.736694,315.875610 1700.898193,317.308746 
	C1692.392578,331.844208 1679.542358,338.198303 1662.915894,337.409698 
	C1644.951538,336.557617 1638.137207,328.294189 1641.517944,310.770569 
	C1642.963989,303.276428 1645.069702,295.878845 1647.331665,288.578674 
	C1653.937256,267.260559 1660.288818,245.844498 1667.651245,224.785431 
	C1675.284912,202.950027 1692.372559,191.671799 1713.705444,192.944839 
	C1725.097290,193.624664 1731.934082,200.075455 1732.851318,211.420578 
	C1733.851196,223.786209 1730.872925,235.217133 1724.064575,245.620575 
	C1723.196289,246.947220 1722.331787,248.276321 1720.915649,250.447556 
	C1723.470337,250.645706 1725.040894,250.871384 1726.611694,250.873337 
	C1742.939697,250.893661 1759.268921,250.763199 1775.594482,250.960220 
	C1779.267456,251.004532 1781.812378,249.846207 1783.243652,246.682861 
	C1787.828125,236.550217 1792.261719,226.349304 1796.981934,215.398895 
M904.957520,384.954468 
	C905.728638,383.109680 906.962097,381.323456 907.204163,379.411652 
	C916.975220,302.244751 926.619324,225.061737 936.446167,147.901993 
	C937.014343,143.440689 935.387024,142.914352 931.677734,142.924438 
	C897.527527,143.017288 863.376770,143.021774 829.226624,142.918137 
	C825.951599,142.908203 824.187744,143.921066 822.710876,146.928635 
	C785.418396,222.874542 748.020020,298.768433 710.656616,374.679565 
	C709.080627,377.881622 707.662354,381.161316 705.888306,385.018463 
	C727.249451,385.018463 747.720703,385.087646 768.188721,384.861511 
	C769.541565,384.846588 771.428955,382.837372 772.122620,381.322906 
	C778.918091,366.484497 785.534973,351.563965 792.143127,336.640472 
	C793.285645,334.060211 794.457397,332.142761 797.870605,332.174011 
	C814.028259,332.321869 830.188293,332.288910 846.346863,332.205383 
	C849.597229,332.188599 850.903809,333.127991 850.218872,336.603149 
	C848.898682,343.300812 847.851013,350.052795 846.724426,356.787903 
	C845.194885,365.932037 843.697266,375.081482 842.054199,385.025604 
	C863.181824,385.025604 883.612793,385.025604 904.957520,384.954468 
M1972.077393,318.517120 
	C1972.272461,316.698578 1972.189087,314.796844 1972.703735,313.073792 
	C1981.805176,282.604401 1990.066162,251.840820 2000.452393,221.813141 
	C2007.618042,201.096481 2024.991211,191.424713 2045.791260,192.977783 
	C2054.091553,193.597534 2060.868652,196.978073 2063.261963,205.418854 
	C2064.541748,209.932037 2064.874268,215.001984 2064.358887,219.680069 
	C2063.007324,231.942841 2059.213135,243.421951 2051.061035,253.077347 
	C2050.591309,253.633682 2050.423096,254.444672 2049.983643,255.431122 
	C2051.019043,255.650894 2051.629150,255.892746 2052.239746,255.893661 
	C2070.069824,255.920471 2087.900879,256.008850 2105.728271,255.795761 
	C2107.486572,255.774734 2109.810547,254.300140 2110.877441,252.795242 
	C2121.448486,237.883545 2128.471680,221.425537 2130.991943,203.267990 
	C2135.130859,173.447922 2120.940186,152.268082 2091.770264,144.504623 
	C2074.107178,139.803665 2056.139404,139.884583 2038.151367,141.846893 
	C1988.667358,147.245102 1955.206543,173.185242 1939.213379,220.498215 
	C1930.520874,246.213165 1922.470703,272.166168 1914.959473,298.250427 
	C1911.342529,310.810577 1908.502319,323.818970 1907.319458,336.807404 
	C1905.039307,361.840240 1917.603882,378.537659 1941.880981,385.198669 
	C1961.321289,390.532532 1981.106079,390.698914 2000.923218,388.591858 
	C2049.547607,383.421997 2083.168701,359.188538 2097.866211,311.335785 
	C2098.768311,308.398773 2099.589600,305.436859 2100.597656,301.975494 
	C2098.208496,301.807312 2096.760254,301.617004 2095.312256,301.617004 
	C2079.148682,301.616974 2062.979492,301.894836 2046.824585,301.531769 
	C2041.237061,301.406189 2038.808716,303.195068 2036.859375,308.495178 
	C2028.821167,330.352020 2008.795044,341.348907 1986.801270,336.641541 
	C1976.962036,334.535645 1972.660400,329.501068 1972.077393,318.517120 
M1177.139648,197.556137 
	C1177.462769,193.575241 1178.034912,189.596283 1178.066040,185.613083 
	C1178.203003,168.126526 1169.199585,154.892059 1152.935547,148.507690 
	C1141.081665,143.854553 1128.631470,143.010193 1116.081299,142.998276 
	C1084.083496,142.967926 1052.084717,143.103775 1020.088867,142.851929 
	C1015.319824,142.814392 1013.401550,144.375427 1012.105347,148.751007 
	C1006.711121,166.960251 1000.993835,185.073822 995.388977,203.220581 
	C977.099121,262.437256 958.804077,321.652344 940.533630,380.875000 
	C940.170776,382.051117 940.083191,383.312134 939.778992,385.032196 
	C942.140869,385.032196 943.953186,385.032013 945.765442,385.032227 
	C961.764343,385.033905 977.768188,384.813171 993.759216,385.168243 
	C998.787476,385.279907 1000.995605,383.852936 1002.452026,378.923737 
	C1008.635559,357.995422 1015.368713,337.230103 1021.687439,316.340576 
	C1022.787781,312.703033 1024.412109,311.265564 1028.301147,311.352753 
	C1039.128296,311.595367 1050.001343,311.997986 1060.787109,311.288574 
	C1072.702759,310.504822 1084.925903,309.961273 1096.338623,306.839813 
	C1124.756348,299.067444 1147.886230,283.196381 1159.329834,255.135178 
	C1166.780273,236.865616 1171.211670,217.364777 1177.139648,197.556137 
M585.500000,385.033203 
	C619.981689,385.034149 654.463562,384.975983 688.944641,385.119537 
	C692.765869,385.135437 694.480103,383.982819 695.569641,380.262573 
	C699.547180,366.681274 703.902710,353.210846 708.090820,339.690887 
	C708.750183,337.562256 709.279663,335.393341 710.091980,332.430542 
	C678.710999,332.430542 648.162964,332.430542 616.585571,332.430542 
	C636.120911,269.001404 655.383667,206.457260 674.933594,142.980789 
	C672.003967,142.980789 670.221741,142.980789 668.439575,142.980774 
	C652.614624,142.980652 636.780090,143.297562 620.969849,142.815277 
	C615.122131,142.636887 613.024780,144.733902 611.402649,150.023788 
	C590.360046,218.644592 569.082581,287.193420 547.877625,355.764496 
	C544.939514,365.265533 542.072449,374.788574 538.949463,385.033203 
	C554.614624,385.033203 569.557312,385.033203 585.500000,385.033203 
M1287.032959,142.980560 
	C1269.700928,142.980408 1252.368042,143.071243 1235.037598,142.904984 
	C1231.479858,142.870865 1229.692749,143.820999 1228.662964,147.433914 
	C1225.695312,157.846130 1222.296387,168.134995 1219.095093,178.481064 
	C1198.263550,245.808350 1177.436523,313.137054 1156.633545,380.473175 
	C1156.227417,381.787720 1156.132690,383.198425 1155.863037,384.732971 
	C1157.099731,384.877289 1157.748901,385.019226 1158.397949,385.019409 
	C1207.727661,385.031647 1257.057251,385.006927 1306.386841,385.095886 
	C1309.503174,385.101501 1310.821533,383.836334 1311.652466,381.064819 
	C1314.570801,371.330597 1317.656372,361.646606 1320.653931,351.936035 
	C1322.543213,345.815735 1324.389160,339.681976 1326.543701,332.604340 
	C1295.030396,332.604340 1264.496338,332.604340 1233.405273,332.604340 
	C1233.838623,330.346375 1233.980591,328.880249 1234.405151,327.501099 
	C1246.072510,289.603699 1257.767822,251.714905 1269.460205,213.825134 
	C1276.288818,191.696594 1283.124512,169.570190 1289.942993,147.438522 
	C1290.572144,145.396240 1291.807007,142.999176 1287.032959,142.980560 
M1883.500000,142.978424 
	C1877.501465,142.977859 1871.473999,143.338577 1865.513306,142.863785 
	C1860.639893,142.475632 1858.948730,144.587372 1857.623901,148.896042 
	C1836.669189,217.040924 1815.553833,285.136383 1794.485352,353.246277 
	C1791.298096,363.549988 1788.162476,373.869629 1784.740479,385.038300 
	C1787.232178,385.038300 1788.993286,385.038300 1790.754395,385.038300 
	C1806.917480,385.038330 1823.087280,384.776154 1839.240112,385.184174 
	C1844.708862,385.322357 1846.895020,383.597992 1848.483521,378.396576 
	C1871.010254,304.631958 1893.778076,230.940933 1916.474365,157.228012 
	C1917.826294,152.836960 1919.064209,148.410782 1920.654419,142.978424 
	C1908.004150,142.978424 1896.252075,142.978424 1883.500000,142.978424 
M250.649658,49.690937 
	C241.726028,49.671131 241.688965,49.659145 238.868729,58.379276 
	C229.029388,88.802391 219.212601,119.232796 209.405624,149.666367 
	C208.557007,152.299881 207.843704,154.977005 206.888992,158.245132 
	C209.142349,158.376572 210.735245,158.546341 212.328552,158.549988 
	C222.992737,158.574417 233.666122,158.305740 244.317032,158.682846 
	C248.989532,158.848282 250.976807,157.354553 252.369217,152.879013 
	C260.530457,126.647034 269.030518,100.520500 277.405487,74.354942 
	C279.923431,66.488144 282.406921,58.610317 285.238464,49.690960 
	C273.438751,49.690960 262.525513,49.690960 250.649658,49.690937 
M313.831299,359.199371 
	C310.709137,368.949738 307.586975,378.700104 304.404114,388.640106 
	C305.796692,388.953430 306.429993,389.218811 307.063934,389.220367 
	C319.552948,389.250793 332.043365,389.151398 344.530182,389.321136 
	C347.970428,389.367920 348.543884,387.270844 349.338806,384.784332 
	C359.525421,352.920715 369.762390,321.073151 379.984863,289.220978 
	C380.884216,286.418671 381.771332,283.612457 382.811371,280.345581 
	C380.777863,280.229767 379.327332,280.078247 377.876495,280.075470 
	C366.719604,280.054199 355.557281,280.258057 344.408569,279.954163 
	C340.497070,279.847534 338.964325,281.268890 337.842621,284.797943 
	C330.029694,309.378906 322.025360,333.899017 313.831299,359.199371 
M198.068649,82.410286 
	C189.970642,107.502914 181.872650,132.595551 173.487991,158.576385 
	C180.766327,158.576385 187.047409,158.380630 193.308121,158.653183 
	C196.807419,158.805527 198.179993,157.432678 199.202606,154.209320 
	C209.769196,120.902771 220.503159,87.649323 231.165375,54.373039 
	C231.589340,53.049816 231.761780,51.645992 232.182037,49.663498 
	C225.503830,49.663498 219.527969,49.885262 213.578979,49.581173 
	C209.951096,49.395729 208.230103,50.614697 207.179123,54.107399 
	C204.400299,63.342117 201.257935,72.467438 198.068649,82.410286 
M377.427368,325.807068 
	C370.699738,346.740997 363.972076,367.674896 357.017944,389.313538 
	C364.241699,389.313538 370.388947,389.088318 376.509064,389.398315 
	C380.158905,389.583191 381.724915,388.300659 382.819672,384.839691 
	C393.296509,351.718994 403.954681,318.655640 414.541779,285.569763 
	C415.065338,283.933594 415.412598,282.240997 415.975128,280.057739 
	C409.086945,280.057739 402.938599,280.279114 396.816864,279.971283 
	C393.372681,279.798096 391.857849,280.943176 390.840912,284.221252 
	C386.603638,297.879517 382.089600,311.451874 377.427368,325.807068 
M180.051773,112.755020 
	C186.698853,91.931091 193.345917,71.107162 200.199280,49.636948 
	C196.812393,49.636948 194.449509,49.942310 192.195206,49.577194 
	C186.435822,48.644375 184.214386,51.290245 182.533386,56.634022 
	C172.388565,88.883629 161.838043,121.005569 151.442368,153.176407 
	C150.956131,154.681152 150.652222,156.244812 150.054565,158.606125 
	C153.942825,158.606125 157.080902,158.341309 160.155197,158.671188 
	C164.269867,159.112717 165.926559,157.381454 167.087280,153.511826 
	C171.105942,140.114166 175.546753,126.843132 180.051773,112.755020 
M391.123383,383.267578 
	C390.623383,385.079315 390.123352,386.891052 389.447449,389.339996 
	C392.995972,389.339996 395.677124,389.031982 398.259766,389.405426 
	C403.318115,390.136780 405.445343,388.083893 406.961975,383.205597 
	C415.657593,355.235748 424.761383,327.392914 433.693634,299.496368 
	C435.703949,293.217957 437.582733,286.897400 439.693848,280.038055 
	C436.064636,280.038055 433.063965,280.303772 430.130066,279.974548 
	C425.934082,279.503723 424.085022,281.079529 422.781403,285.192139 
	C412.478088,317.697144 401.898590,350.114594 391.123383,383.267578 
M444.198608,290.406464 
	C433.645386,323.125916 423.092194,355.845398 412.517944,388.630066 
	C422.338531,390.586456 423.016357,390.325226 425.674622,382.066132 
	C436.174255,349.444550 446.599121,316.798920 457.025848,284.153931 
	C457.398712,282.986542 457.499847,281.732330 457.731232,280.499512 
	C447.848358,279.232635 447.847076,279.232208 445.048157,287.752075 
	C444.840393,288.384399 444.668915,289.028656 444.198608,290.406464 
M153.160034,127.904793 
	C161.422684,102.139282 169.685333,76.373772 177.956116,50.582901 
	C169.056747,48.178181 167.844391,48.795544 165.400864,56.332748 
	C155.395935,87.193756 145.371521,118.048477 135.382202,148.914536 
	C134.432022,151.850449 133.676071,154.849197 132.822906,157.843567 
	C142.463531,159.918411 143.127106,159.513412 145.791153,151.010483 
	C148.128922,143.548920 150.555939,136.115311 153.160034,127.904793 
M460.556274,310.317352 
	C463.745514,300.442993 466.934753,290.568634 470.118744,280.710480 
	C465.817993,279.099030 464.424225,280.629578 463.352448,283.981964 
	C454.186798,312.651367 444.834839,341.261108 435.567322,369.898010 
	C433.546295,376.143066 431.640472,382.425446 429.631897,388.849548 
	C433.518524,389.990295 435.390839,389.353821 436.536377,385.693726 
	C444.333801,360.779388 452.345795,335.932220 460.556274,310.317352 
M146.023209,75.352036 
	C137.164352,102.810188 128.305496,130.268341 119.410515,157.838486 
	C123.622032,159.600739 125.342079,158.280289 126.493393,154.650238 
	C137.045029,121.381363 147.730057,88.154793 158.355530,54.909298 
	C158.834656,53.410156 159.115723,51.847713 159.476013,50.368286 
	C155.576706,48.567520 154.092346,50.218502 153.145233,53.240681 
	C150.908844,60.376808 148.559509,67.477547 146.023209,75.352036 
z"/>
<path fill="#021846" opacity="1.000000" stroke="none" 
	d="
M189.000977,168.384888 
	C208.298553,168.381424 227.096054,168.381424 247.124176,168.381424 
	C234.824203,205.749954 222.747055,242.441559 210.394974,279.968384 
	C251.126984,279.968384 291.267456,279.968384 332.178894,279.968384 
	C331.243683,283.020844 330.599945,285.200928 329.908844,287.365875 
	C319.782288,319.088257 309.551544,350.778015 299.618347,382.560822 
	C298.037109,387.620178 295.800385,389.403687 290.280243,389.389313 
	C209.814178,389.179443 129.347427,389.244629 48.880829,389.244141 
	C47.086155,389.244110 45.291481,389.244110 42.626747,389.244110 
	C44.977379,381.937378 47.023067,375.342957 49.216312,368.797974 
	C67.939644,312.924591 86.689240,257.059998 105.432335,201.193253 
	C108.610809,191.719315 111.952881,182.295944 114.893677,172.748901 
	C115.940079,169.351898 117.721008,168.513596 121.030670,168.521912 
	C143.520493,168.578430 166.010788,168.454193 189.000977,168.384888 
z"/>
<path fill="#021846" opacity="1.000000" stroke="none" 
	d="
M399.999878,270.606567 
	C341.691437,270.563416 283.883057,270.521057 226.074677,270.458618 
	C225.787766,270.458313 225.501129,270.174164 224.644241,269.721252 
	C225.100647,267.860962 225.474533,265.807617 226.106659,263.837158 
	C248.378662,194.411575 270.720001,125.008125 292.861664,55.541031 
	C294.266724,51.132824 296.087891,49.600601 300.811768,49.628941 
	C336.630188,49.843788 372.450500,49.744404 408.270203,49.743015 
	C409.913788,49.742954 411.557404,49.743008 414.283112,49.743008 
	C402.338593,87.043129 390.617767,123.644753 378.676453,160.934814 
	C421.801514,160.934814 464.052856,160.934814 507.152618,160.934814 
	C505.174316,167.395309 503.461029,173.214081 501.612366,178.989517 
	C492.376129,207.844406 483.024292,236.662766 473.940613,265.565491 
	C472.724701,269.434326 471.054108,270.744019 466.972565,270.705780 
	C444.816620,270.498352 422.657745,270.606903 399.999878,270.606567 
z"/>
<path fill="#041947" opacity="1.000000" stroke="none" 
	d="
M1576.710938,194.042068 
	C1576.678223,209.887177 1572.515625,224.459305 1567.892822,238.920853 
	C1559.628052,264.775055 1552.478760,291.068787 1542.673584,316.328888 
	C1526.409180,358.229401 1495.224854,382.504822 1450.269653,388.134430 
	C1429.467773,390.739349 1408.688843,390.873505 1388.282104,385.087006 
	C1362.587158,377.800995 1350.346313,359.982849 1351.776367,333.313446 
	C1352.799805,314.223541 1359.020386,296.450409 1364.580811,278.500946 
	C1371.036621,257.661255 1376.843506,236.537399 1384.758423,216.249390 
	C1403.772339,167.511505 1440.974976,143.682465 1492.470703,140.975769 
	C1508.838501,140.115448 1525.131104,140.716675 1540.953369,145.774368 
	C1564.300903,153.237503 1576.193115,169.115845 1576.710938,194.042068 
M1485.149292,306.578461 
	C1491.389038,286.905792 1497.830444,267.293915 1503.784058,247.535034 
	C1506.797729,237.532776 1509.857300,227.389435 1511.240112,217.087601 
	C1513.240723,202.183136 1505.339722,193.806458 1490.289795,192.940933 
	C1468.143555,191.667282 1450.112305,203.381012 1442.524170,225.551590 
	C1434.226929,249.793594 1426.910400,274.376404 1419.470215,298.902771 
	C1417.744995,304.589905 1416.780273,310.611938 1416.293213,316.547760 
	C1415.404785,327.378418 1420.464355,334.050690 1431.036255,336.386993 
	C1440.663086,338.514435 1450.225830,337.834229 1459.562378,334.570770 
	C1472.805054,329.942017 1479.844116,319.552734 1485.149292,306.578461 
z"/>
<path fill="#041A47" opacity="1.000000" stroke="none" 
	d="
M1796.867676,215.786819 
	C1792.261719,226.349304 1787.828125,236.550217 1783.243652,246.682861 
	C1781.812378,249.846207 1779.267456,251.004532 1775.594482,250.960220 
	C1759.268921,250.763199 1742.939697,250.893661 1726.611694,250.873337 
	C1725.040894,250.871384 1723.470337,250.645706 1720.915649,250.447556 
	C1722.331787,248.276321 1723.196289,246.947220 1724.064575,245.620575 
	C1730.872925,235.217133 1733.851196,223.786209 1732.851318,211.420578 
	C1731.934082,200.075455 1725.097290,193.624664 1713.705444,192.944839 
	C1692.372559,191.671799 1675.284912,202.950027 1667.651245,224.785431 
	C1660.288818,245.844498 1653.937256,267.260559 1647.331665,288.578674 
	C1645.069702,295.878845 1642.963989,303.276428 1641.517944,310.770569 
	C1638.137207,328.294189 1644.951538,336.557617 1662.915894,337.409698 
	C1679.542358,338.198303 1692.392578,331.844208 1700.898193,317.308746 
	C1701.736694,315.875610 1702.448242,314.360077 1703.109009,312.835205 
	C1703.348633,312.282318 1703.266479,311.589996 1703.405273,310.243896 
	C1694.769165,310.243896 1686.395874,310.243896 1676.859741,310.243896 
	C1678.683594,304.181000 1680.205933,299.039276 1681.778931,293.913116 
	C1683.586670,288.022278 1685.232300,282.066772 1687.411865,276.315033 
	C1687.983276,274.807343 1690.265137,272.953491 1691.773560,272.942810 
	C1719.596313,272.745697 1747.420776,272.800781 1775.244995,272.827545 
	C1776.049683,272.828339 1776.854248,273.101379 1777.589600,273.234894 
	C1777.674316,273.554565 1777.789551,273.736053 1777.747925,273.868347 
	C1770.828735,295.896515 1766.114136,318.768494 1754.066040,338.879761 
	C1740.511108,361.506226 1720.641602,376.205444 1695.369507,383.316223 
	C1667.276611,391.220795 1638.854614,392.688110 1610.504395,384.856384 
	C1586.836426,378.318054 1574.609253,359.595001 1576.354248,335.096283 
	C1577.381714,320.670349 1580.615234,306.816620 1584.893188,293.109619 
	C1591.939453,270.532043 1598.688110,247.858078 1606.017456,225.373093 
	C1623.076660,173.038452 1661.508301,143.763367 1716.476074,140.992432 
	C1733.019897,140.158447 1749.485474,140.600433 1765.388184,146.089249 
	C1791.409058,155.070343 1804.286377,177.114227 1799.304688,204.142395 
	C1798.610352,207.909286 1797.760010,211.647430 1796.867676,215.786819 
z"/>
<path fill="#041947" opacity="1.000000" stroke="none" 
	d="
M904.500610,384.990051 
	C883.612793,385.025604 863.181824,385.025604 842.054199,385.025604 
	C843.697266,375.081482 845.194885,365.932037 846.724426,356.787903 
	C847.851013,350.052795 848.898682,343.300812 850.218872,336.603149 
	C850.903809,333.127991 849.597229,332.188599 846.346863,332.205383 
	C830.188293,332.288910 814.028259,332.321869 797.870605,332.174011 
	C794.457397,332.142761 793.285645,334.060211 792.143127,336.640472 
	C785.534973,351.563965 778.918091,366.484497 772.122620,381.322906 
	C771.428955,382.837372 769.541565,384.846588 768.188721,384.861511 
	C747.720703,385.087646 727.249451,385.018463 705.888306,385.018463 
	C707.662354,381.161316 709.080627,377.881622 710.656616,374.679565 
	C748.020020,298.768433 785.418396,222.874542 822.710876,146.928635 
	C824.187744,143.921066 825.951599,142.908203 829.226624,142.918137 
	C863.376770,143.021774 897.527527,143.017288 931.677734,142.924438 
	C935.387024,142.914352 937.014343,143.440689 936.446167,147.901993 
	C926.619324,225.061737 916.975220,302.244751 907.204163,379.411652 
	C906.962097,381.323456 905.728638,383.109680 904.500610,384.990051 
M847.468445,287.175354 
	C848.634949,287.175446 849.801514,287.175964 850.968018,287.175537 
	C858.667053,287.172791 858.605164,287.161987 859.917786,279.566528 
	C864.088501,255.432037 868.315857,231.307343 872.496948,207.174652 
	C872.767334,205.614105 872.832520,204.018005 873.056213,201.818085 
	C867.511841,201.818085 862.539978,202.069199 857.606750,201.740097 
	C853.527161,201.467941 851.373108,202.859222 849.691833,206.707489 
	C838.620117,232.048019 827.283875,257.272949 816.069885,282.551544 
	C815.519226,283.792908 815.305054,285.183502 814.745667,287.176025 
	C825.871521,287.176025 836.175537,287.176025 847.468445,287.175354 
z"/>
<path fill="#041A47" opacity="1.000000" stroke="none" 
	d="
M1972.068359,318.952606 
	C1972.660400,329.501068 1976.962036,334.535645 1986.801270,336.641541 
	C2008.795044,341.348907 2028.821167,330.352020 2036.859375,308.495178 
	C2038.808716,303.195068 2041.237061,301.406189 2046.824585,301.531769 
	C2062.979492,301.894836 2079.148682,301.616974 2095.312256,301.617004 
	C2096.760254,301.617004 2098.208496,301.807312 2100.597656,301.975494 
	C2099.589600,305.436859 2098.768311,308.398773 2097.866211,311.335785 
	C2083.168701,359.188538 2049.547607,383.421997 2000.923218,388.591858 
	C1981.106079,390.698914 1961.321289,390.532532 1941.880981,385.198669 
	C1917.603882,378.537659 1905.039307,361.840240 1907.319458,336.807404 
	C1908.502319,323.818970 1911.342529,310.810577 1914.959473,298.250427 
	C1922.470703,272.166168 1930.520874,246.213165 1939.213379,220.498215 
	C1955.206543,173.185242 1988.667358,147.245102 2038.151367,141.846893 
	C2056.139404,139.884583 2074.107178,139.803665 2091.770264,144.504623 
	C2120.940186,152.268082 2135.130859,173.447922 2130.991943,203.267990 
	C2128.471680,221.425537 2121.448486,237.883545 2110.877441,252.795242 
	C2109.810547,254.300140 2107.486572,255.774734 2105.728271,255.795761 
	C2087.900879,256.008850 2070.069824,255.920471 2052.239746,255.893661 
	C2051.629150,255.892746 2051.019043,255.650894 2049.983643,255.431122 
	C2050.423096,254.444672 2050.591309,253.633682 2051.061035,253.077347 
	C2059.213135,243.421951 2063.007324,231.942841 2064.358887,219.680069 
	C2064.874268,215.001984 2064.541748,209.932037 2063.261963,205.418854 
	C2060.868652,196.978073 2054.091553,193.597534 2045.791260,192.977783 
	C2024.991211,191.424713 2007.618042,201.096481 2000.452393,221.813141 
	C1990.066162,251.840820 1981.805176,282.604401 1972.703735,313.073792 
	C1972.189087,314.796844 1972.272461,316.698578 1972.068359,318.952606 
z"/>
<path fill="#041947" opacity="1.000000" stroke="none" 
	d="
M1177.067627,197.985825 
	C1171.211670,217.364777 1166.780273,236.865616 1159.329834,255.135178 
	C1147.886230,283.196381 1124.756348,299.067444 1096.338623,306.839813 
	C1084.925903,309.961273 1072.702759,310.504822 1060.787109,311.288574 
	C1050.001343,311.997986 1039.128296,311.595367 1028.301147,311.352753 
	C1024.412109,311.265564 1022.787781,312.703033 1021.687439,316.340576 
	C1015.368713,337.230103 1008.635559,357.995422 1002.452026,378.923737 
	C1000.995605,383.852936 998.787476,385.279907 993.759216,385.168243 
	C977.768188,384.813171 961.764343,385.033905 945.765442,385.032227 
	C943.953186,385.032013 942.140869,385.032196 939.778992,385.032196 
	C940.083191,383.312134 940.170776,382.051117 940.533630,380.875000 
	C958.804077,321.652344 977.099121,262.437256 995.388977,203.220581 
	C1000.993835,185.073822 1006.711121,166.960251 1012.105347,148.751007 
	C1013.401550,144.375427 1015.319824,142.814392 1020.088867,142.851929 
	C1052.084717,143.103775 1084.083496,142.967926 1116.081299,142.998276 
	C1128.631470,143.010193 1141.081665,143.854553 1152.935547,148.507690 
	C1169.199585,154.892059 1178.203003,168.126526 1178.066040,185.613083 
	C1178.034912,189.596283 1177.462769,193.575241 1177.067627,197.985825 
M1087.060547,255.691299 
	C1095.311157,252.093475 1100.856689,245.880783 1103.888672,237.547623 
	C1106.161133,231.301590 1108.165771,224.935425 1109.877563,218.512863 
	C1113.411377,205.253387 1107.659058,196.723114 1093.978027,195.796753 
	C1083.371704,195.078537 1072.687988,195.316208 1062.046387,195.523727 
	C1060.592285,195.552063 1058.382446,197.610199 1057.877075,199.167969 
	C1053.204712,213.569733 1048.821167,228.065353 1044.373901,242.539902 
	C1042.784546,247.713074 1041.250488,252.903259 1039.424316,258.972565 
	C1048.841919,258.972565 1057.308716,259.356354 1065.722534,258.852844 
	C1072.627441,258.439606 1079.469360,256.971313 1087.060547,255.691299 
z"/>
<path fill="#041947" opacity="1.000000" stroke="none" 
	d="
M585.000000,385.033203 
	C569.557312,385.033203 554.614624,385.033203 538.949463,385.033203 
	C542.072449,374.788574 544.939514,365.265533 547.877625,355.764496 
	C569.082581,287.193420 590.360046,218.644592 611.402649,150.023788 
	C613.024780,144.733902 615.122131,142.636887 620.969849,142.815277 
	C636.780090,143.297562 652.614624,142.980652 668.439575,142.980774 
	C670.221741,142.980789 672.003967,142.980789 674.933594,142.980789 
	C655.383667,206.457260 636.120911,269.001404 616.585571,332.430542 
	C648.162964,332.430542 678.710999,332.430542 710.091980,332.430542 
	C709.279663,335.393341 708.750183,337.562256 708.090820,339.690887 
	C703.902710,353.210846 699.547180,366.681274 695.569641,380.262573 
	C694.480103,383.982819 692.765869,385.135437 688.944641,385.119537 
	C654.463562,384.975983 619.981689,385.034149 585.000000,385.033203 
z"/>
<path fill="#041947" opacity="1.000000" stroke="none" 
	d="
M1287.472168,142.983704 
	C1291.807007,142.999176 1290.572144,145.396240 1289.942993,147.438522 
	C1283.124512,169.570190 1276.288818,191.696594 1269.460205,213.825134 
	C1257.767822,251.714905 1246.072510,289.603699 1234.405151,327.501099 
	C1233.980591,328.880249 1233.838623,330.346375 1233.405273,332.604340 
	C1264.496338,332.604340 1295.030396,332.604340 1326.543701,332.604340 
	C1324.389160,339.681976 1322.543213,345.815735 1320.653931,351.936035 
	C1317.656372,361.646606 1314.570801,371.330597 1311.652466,381.064819 
	C1310.821533,383.836334 1309.503174,385.101501 1306.386841,385.095886 
	C1257.057251,385.006927 1207.727661,385.031647 1158.397949,385.019409 
	C1157.748901,385.019226 1157.099731,384.877289 1155.863037,384.732971 
	C1156.132690,383.198425 1156.227417,381.787720 1156.633545,380.473175 
	C1177.436523,313.137054 1198.263550,245.808350 1219.095093,178.481064 
	C1222.296387,168.134995 1225.695312,157.846130 1228.662964,147.433914 
	C1229.692749,143.820999 1231.479858,142.870865 1235.037598,142.904984 
	C1252.368042,143.071243 1269.700928,142.980408 1287.472168,142.983704 
z"/>
<path fill="#051A48" opacity="1.000000" stroke="none" 
	d="
M1884.000000,142.978424 
	C1896.252075,142.978424 1908.004150,142.978424 1920.654419,142.978424 
	C1919.064209,148.410782 1917.826294,152.836960 1916.474365,157.228012 
	C1893.778076,230.940933 1871.010254,304.631958 1848.483521,378.396576 
	C1846.895020,383.597992 1844.708862,385.322357 1839.240112,385.184174 
	C1823.087280,384.776154 1806.917480,385.038330 1790.754395,385.038300 
	C1788.993286,385.038300 1787.232178,385.038300 1784.740479,385.038300 
	C1788.162476,373.869629 1791.298096,363.549988 1794.485352,353.246277 
	C1815.553833,285.136383 1836.669189,217.040924 1857.623901,148.896042 
	C1858.948730,144.587372 1860.639893,142.475632 1865.513306,142.863785 
	C1871.473999,143.338577 1877.501465,142.977859 1884.000000,142.978424 
z"/>
<path fill="#061C49" opacity="1.000000" stroke="none" 
	d="
M251.130981,49.690948 
	C262.525513,49.690960 273.438751,49.690960 285.238464,49.690960 
	C282.406921,58.610317 279.923431,66.488144 277.405487,74.354942 
	C269.030518,100.520500 260.530457,126.647034 252.369217,152.879013 
	C250.976807,157.354553 248.989532,158.848282 244.317032,158.682846 
	C233.666122,158.305740 222.992737,158.574417 212.328552,158.549988 
	C210.735245,158.546341 209.142349,158.376572 206.888992,158.245132 
	C207.843704,154.977005 208.557007,152.299881 209.405624,149.666367 
	C219.212601,119.232796 229.029388,88.802391 238.868729,58.379276 
	C241.688965,49.659145 241.726028,49.671131 251.130981,49.690948 
z"/>
<path fill="#061C49" opacity="1.000000" stroke="none" 
	d="
M313.956818,358.819000 
	C322.025360,333.899017 330.029694,309.378906 337.842621,284.797943 
	C338.964325,281.268890 340.497070,279.847534 344.408569,279.954163 
	C355.557281,280.258057 366.719604,280.054199 377.876495,280.075470 
	C379.327332,280.078247 380.777863,280.229767 382.811371,280.345581 
	C381.771332,283.612457 380.884216,286.418671 379.984863,289.220978 
	C369.762390,321.073151 359.525421,352.920715 349.338806,384.784332 
	C348.543884,387.270844 347.970428,389.367920 344.530182,389.321136 
	C332.043365,389.151398 319.552948,389.250793 307.063934,389.220367 
	C306.429993,389.218811 305.796692,388.953430 304.404114,388.640106 
	C307.586975,378.700104 310.709137,368.949738 313.956818,358.819000 
z"/>
<path fill="#0A1F4B" opacity="1.000000" stroke="none" 
	d="
M198.164459,82.023293 
	C201.257935,72.467438 204.400299,63.342117 207.179123,54.107399 
	C208.230103,50.614697 209.951096,49.395729 213.578979,49.581173 
	C219.527969,49.885262 225.503830,49.663498 232.182037,49.663498 
	C231.761780,51.645992 231.589340,53.049816 231.165375,54.373039 
	C220.503159,87.649323 209.769196,120.902771 199.202606,154.209320 
	C198.179993,157.432678 196.807419,158.805527 193.308121,158.653183 
	C187.047409,158.380630 180.766327,158.576385 173.487991,158.576385 
	C181.872650,132.595551 189.970642,107.502914 198.164459,82.023293 
z"/>
<path fill="#0A1F4B" opacity="1.000000" stroke="none" 
	d="
M377.552185,325.431396 
	C382.089600,311.451874 386.603638,297.879517 390.840912,284.221252 
	C391.857849,280.943176 393.372681,279.798096 396.816864,279.971283 
	C402.938599,280.279114 409.086945,280.057739 415.975128,280.057739 
	C415.412598,282.240997 415.065338,283.933594 414.541779,285.569763 
	C403.954681,318.655640 393.296509,351.718994 382.819672,384.839691 
	C381.724915,388.300659 380.158905,389.583191 376.509064,389.398315 
	C370.388947,389.088318 364.241699,389.313538 357.017944,389.313538 
	C363.972076,367.674896 370.699738,346.740997 377.552185,325.431396 
z"/>
<path fill="#0F234E" opacity="1.000000" stroke="none" 
	d="
M179.939331,113.139465 
	C175.546753,126.843132 171.105942,140.114166 167.087280,153.511826 
	C165.926559,157.381454 164.269867,159.112717 160.155197,158.671188 
	C157.080902,158.341309 153.942825,158.606125 150.054565,158.606125 
	C150.652222,156.244812 150.956131,154.681152 151.442368,153.176407 
	C161.838043,121.005569 172.388565,88.883629 182.533386,56.634022 
	C184.214386,51.290245 186.435822,48.644375 192.195206,49.577194 
	C194.449509,49.942310 196.812393,49.636948 200.199280,49.636948 
	C193.345917,71.107162 186.698853,91.931091 179.939331,113.139465 
z"/>
<path fill="#0F234E" opacity="1.000000" stroke="none" 
	d="
M391.263733,382.913269 
	C401.898590,350.114594 412.478088,317.697144 422.781403,285.192139 
	C424.085022,281.079529 425.934082,279.503723 430.130066,279.974548 
	C433.063965,280.303772 436.064636,280.038055 439.693848,280.038055 
	C437.582733,286.897400 435.703949,293.217957 433.693634,299.496368 
	C424.761383,327.392914 415.657593,355.235748 406.961975,383.205597 
	C405.445343,388.083893 403.318115,390.136780 398.259766,389.405426 
	C395.677124,389.031982 392.995972,389.339996 389.447449,389.339996 
	C390.123352,386.891052 390.623383,385.079315 391.263733,382.913269 
z"/>
<path fill="#142850" opacity="1.000000" stroke="none" 
	d="
M444.339600,290.036926 
	C444.668915,289.028656 444.840393,288.384399 445.048157,287.752075 
	C447.847076,279.232208 447.848358,279.232635 457.731232,280.499512 
	C457.499847,281.732330 457.398712,282.986542 457.025848,284.153931 
	C446.599121,316.798920 436.174255,349.444550 425.674622,382.066132 
	C423.016357,390.325226 422.338531,390.586456 412.517944,388.630066 
	C423.092194,355.845398 433.645386,323.125916 444.339600,290.036926 
z"/>
<path fill="#142850" opacity="1.000000" stroke="none" 
	d="
M153.051788,128.287079 
	C150.555939,136.115311 148.128922,143.548920 145.791153,151.010483 
	C143.127106,159.513412 142.463531,159.918411 132.822906,157.843567 
	C133.676071,154.849197 134.432022,151.850449 135.382202,148.914536 
	C145.371521,118.048477 155.395935,87.193756 165.400864,56.332748 
	C167.844391,48.795544 169.056747,48.178181 177.956116,50.582901 
	C169.685333,76.373772 161.422684,102.139282 153.051788,128.287079 
z"/>
<path fill="#243559" opacity="1.000000" stroke="none" 
	d="
M460.422394,310.690369 
	C452.345795,335.932220 444.333801,360.779388 436.536377,385.693726 
	C435.390839,389.353821 433.518524,389.990295 429.631897,388.849548 
	C431.640472,382.425446 433.546295,376.143066 435.567322,369.898010 
	C444.834839,341.261108 454.186798,312.651367 463.352448,283.981964 
	C464.424225,280.629578 465.817993,279.099030 470.118744,280.710480 
	C466.934753,290.568634 463.745514,300.442993 460.422394,310.690369 
z"/>
<path fill="#243559" opacity="1.000000" stroke="none" 
	d="
M146.139526,74.972313 
	C148.559509,67.477547 150.908844,60.376808 153.145233,53.240681 
	C154.092346,50.218502 155.576706,48.567520 159.476013,50.368286 
	C159.115723,51.847713 158.834656,53.410156 158.355530,54.909298 
	C147.730057,88.154793 137.045029,121.381363 126.493393,154.650238 
	C125.342079,158.280289 123.622032,159.600739 119.410515,157.838486 
	C128.305496,130.268341 137.164352,102.810188 146.139526,74.972313 
z"/>
<path fill="#021846" opacity="1.000000" stroke="none" 
	d="
M426.000153,129.991821 
	C425.616211,129.901932 425.232300,129.812057 424.391479,129.317627 
	C422.574585,128.474564 421.214539,128.036041 419.768219,127.569717 
	C419.956055,125.450401 420.123352,123.562904 420.412903,121.309219 
	C421.003082,120.065964 421.471039,119.188896 422.213257,118.142456 
	C422.435028,117.199440 422.382507,116.425797 422.437683,115.308777 
	C422.982605,113.592728 423.419891,112.220055 424.092712,110.758621 
	C424.371185,110.566925 424.464905,110.453712 424.446594,110.363159 
	C424.406952,110.167145 424.309937,109.982735 424.352692,109.416885 
	C424.687134,108.017883 424.905304,106.995567 425.469666,106.036911 
	C426.278717,106.031754 426.741608,105.962929 427.579285,105.935585 
	C429.968414,106.319679 431.982727,106.662292 434.264771,107.212944 
	C435.799255,107.861633 437.065979,108.302277 438.526367,108.990883 
	C439.497559,109.430618 440.275116,109.622406 441.227112,109.991745 
	C441.732941,110.304947 441.948639,110.544701 442.067261,111.259239 
	C443.282074,112.455223 444.478210,113.280525 445.675018,114.516479 
	C445.172394,116.968002 444.669067,119.008873 444.023254,121.402588 
	C443.416840,123.475212 442.952972,125.194992 442.140503,126.918533 
	C440.406921,129.503906 439.021942,132.085495 437.636963,134.667084 
	C434.734650,133.406464 431.832336,132.145859 428.540833,130.494843 
	C427.434448,130.066910 426.717316,130.029358 426.000153,129.991821 
z"/>
<path fill="#E1E4EA" opacity="1.000000" stroke="none" 
	d="
M410.028137,89.007019 
	C409.781158,88.614304 409.235931,88.119965 409.330139,87.843513 
	C413.505402,75.590317 417.737000,63.356312 422.369171,51.400467 
	C422.445007,53.100246 422.113586,54.519585 421.543274,56.120392 
	C421.214294,56.870972 421.124176,57.440079 420.838684,58.319786 
	C420.030121,60.734142 419.416931,62.837898 418.525269,65.205147 
	C417.767059,67.066895 417.022339,68.864883 420.421326,67.902107 
	C421.857910,67.870987 422.903198,67.772606 424.270508,67.776100 
	C425.394012,67.580681 426.195526,67.283386 427.454803,67.013062 
	C431.268860,67.039452 434.625183,67.038879 437.957581,67.424492 
	C436.717072,72.224503 435.500488,76.638321 434.084229,81.373581 
	C433.569092,83.139435 433.253601,84.583839 432.974701,86.035309 
	C433.011292,86.042366 433.046173,85.976448 432.577332,85.915588 
	C425.409363,85.854729 418.710205,85.854729 411.869202,85.854729 
	C411.328796,86.780022 410.678467,87.893517 410.028137,89.007019 
M413.434662,80.362755 
	C413.381287,81.111748 413.327942,81.860741 413.274597,82.609734 
	C413.503998,82.619476 413.733368,82.629219 413.962769,82.638954 
	C413.962769,81.748688 413.962769,80.858429 414.594269,79.949562 
	C414.666351,79.439636 414.738434,78.929710 414.810547,78.419785 
	C414.612335,78.395905 414.414124,78.372017 414.215912,78.348137 
	C414.164673,78.917198 414.113403,79.486252 413.434662,80.362755 
M415.782898,76.358864 
	C415.696930,76.081230 415.610962,75.803596 415.524994,75.525963 
	C415.505707,75.920380 415.486450,76.314789 415.782898,76.358864 
z"/>
<path fill="#243559" opacity="1.000000" stroke="none" 
	d="
M410.049744,89.358551 
	C410.678467,87.893517 411.328796,86.780022 411.869202,85.854729 
	C418.710205,85.854729 425.409363,85.854729 432.518311,86.287354 
	C431.020264,93.111366 429.112366,99.502747 427.204468,105.894112 
	C426.741608,105.962929 426.278717,106.031754 424.994324,106.060921 
	C419.117249,105.979172 414.061737,105.937073 408.738831,105.662643 
	C407.503082,104.853729 406.534729,104.277153 405.566345,103.700577 
	C406.056885,102.048042 406.547394,100.395493 407.281616,98.149414 
	C407.945984,96.026184 408.366638,94.496483 408.787292,92.966782 
	C409.215302,91.881218 409.643311,90.795654 410.049744,89.358551 
z"/>
<path fill="#142850" opacity="1.000000" stroke="none" 
	d="
M516.592102,134.065613 
	C516.159302,135.474747 515.726501,136.883881 514.883179,138.841766 
	C514.125427,141.028320 513.778137,142.666122 513.430847,144.303925 
	C512.290710,147.719955 511.150543,151.136002 510.139984,154.163742 
	C503.044678,154.163742 496.486877,154.163742 489.510742,153.829987 
	C489.105682,153.067932 489.118896,152.639648 489.340393,151.918060 
	C491.286133,146.859741 493.023590,142.094727 495.021118,137.155396 
	C496.217163,135.953064 497.153168,134.925064 498.547974,133.935043 
	C504.333466,133.584015 509.660156,133.195038 515.157715,133.123459 
	C515.749817,133.649109 516.170959,133.857361 516.592102,134.065613 
z"/>
<path fill="#021846" opacity="1.000000" stroke="none" 
	d="
M418.803741,64.941658 
	C419.416931,62.837898 420.030121,60.734142 421.139069,58.294479 
	C421.683929,57.285355 421.733032,56.612137 421.782135,55.938919 
	C422.113586,54.519585 422.445007,53.100246 422.700562,51.324028 
	C424.221069,50.097542 425.817505,49.227932 428.061066,48.253777 
	C429.154114,47.953594 429.599976,47.757954 430.045868,47.562317 
	C431.818512,47.503639 433.591125,47.444965 436.061462,47.314079 
	C437.521423,47.021198 438.283661,46.800526 439.045898,46.579857 
	C441.404724,46.672436 443.763519,46.765018 446.351257,47.125824 
	C446.450043,47.983337 446.319977,48.572632 446.015839,49.461281 
	C444.970764,51.874794 444.099731,53.988956 442.924408,56.072769 
	C442.419067,57.039944 442.218018,58.037472 442.002136,59.383675 
	C441.569611,60.804893 441.151886,61.877445 440.416840,63.017429 
	C439.393494,64.402672 438.687500,65.720482 437.981476,67.038300 
	C434.625183,67.038879 431.268860,67.039452 427.285400,66.755768 
	C425.754974,66.872414 424.851746,67.273323 423.948486,67.674225 
	C422.903198,67.772606 421.857910,67.870987 420.418335,67.562286 
	C419.617249,66.417366 419.210510,65.679512 418.803741,64.941658 
z"/>
<path fill="#021846" opacity="1.000000" stroke="none" 
	d="
M460.752563,150.360413 
	C459.753601,149.927948 458.754669,149.495499 457.412048,148.603424 
	C456.740356,147.135910 456.412354,146.128006 456.247681,144.786346 
	C457.357910,141.320526 458.304840,138.188461 459.506958,134.894287 
	C459.829803,134.152954 459.897491,133.573715 460.169434,132.719116 
	C460.999207,130.984238 461.624756,129.524734 462.639465,128.062317 
	C464.068359,128.007248 465.108124,127.955086 466.448059,127.985397 
	C467.468506,128.475952 468.188843,128.884018 468.945740,129.558502 
	C469.649231,129.932861 470.316193,130.040771 471.317810,130.178436 
	C472.092102,130.185364 472.531738,130.162567 473.196472,130.340576 
	C474.301514,130.977051 475.181427,131.412689 476.092896,132.236832 
	C476.712372,133.007477 477.300323,133.389633 477.882751,134.178757 
	C477.235138,136.055695 476.593048,137.525665 475.596588,139.049042 
	C474.366913,142.382080 473.491669,145.661728 472.659515,149.282196 
	C472.717407,150.079437 472.732239,150.535828 472.492218,151.159790 
	C472.161133,151.915619 472.084900,152.503876 472.008636,153.092148 
	C470.677948,152.911484 469.347260,152.730835 467.426910,152.162384 
	C464.809021,151.303177 462.780792,150.831802 460.752563,150.360413 
z"/>
<path fill="#0F234E" opacity="1.000000" stroke="none" 
	d="
M469.212067,52.734921 
	C473.855621,57.198631 478.499146,61.662342 483.132690,66.715767 
	C482.149048,69.575874 481.175415,71.846268 480.055847,74.455833 
	C479.212585,76.682961 478.515228,78.570915 477.733124,80.688240 
	C475.782593,79.487892 474.439331,78.661240 472.975708,77.605621 
	C472.418030,77.114403 471.980743,76.852158 471.412415,76.286026 
	C470.180176,75.335068 469.078949,74.687988 467.789459,73.816406 
	C467.079590,73.342010 466.557953,73.092102 465.914429,72.540390 
	C464.562592,70.839394 463.332703,69.440208 462.238922,67.828979 
	C462.465546,67.295609 462.556091,66.974274 462.915833,66.425163 
	C464.037323,63.438885 464.889618,60.680393 465.919373,57.641296 
	C466.186035,56.929760 466.275238,56.498821 466.634430,55.861855 
	C466.963531,54.774612 467.022675,53.893398 467.444336,53.069206 
	C468.275238,52.995792 468.743652,52.865356 469.212067,52.734921 
z"/>
<path fill="#021846" opacity="1.000000" stroke="none" 
	d="
M502.715485,79.975494 
	C505.885284,80.138580 509.055054,80.301674 512.626587,81.006119 
	C513.062012,82.097946 513.095764,82.648407 513.093140,83.544327 
	C512.942566,84.569351 512.828430,85.248909 512.372070,86.009125 
	C511.227509,88.953506 510.425079,91.817230 509.589050,94.983902 
	C509.321991,95.847237 509.088470,96.407631 508.502380,96.960503 
	C507.099396,97.292221 506.049011,97.631462 504.667450,97.973480 
	C503.925964,97.823036 503.515717,97.669800 502.978760,97.193497 
	C502.016052,96.774879 501.180023,96.679321 500.033508,96.564392 
	C499.171906,96.269966 498.620758,95.994904 497.987244,95.376007 
	C497.077606,94.826347 496.250366,94.620522 495.168823,94.370117 
	C494.630798,94.135803 494.346985,93.946083 494.089172,93.360596 
	C493.999115,92.183487 493.883118,91.402161 493.777039,90.260437 
	C494.902466,86.944008 496.017975,83.987976 497.493713,81.011108 
	C499.474426,80.652008 501.094971,80.313759 502.715485,79.975494 
z"/>
<path fill="#81899B" opacity="1.000000" stroke="none" 
	d="
M405.260590,103.863922 
	C406.534729,104.277153 407.503082,104.853729 408.490540,105.914795 
	C403.277466,112.161942 403.179626,119.744598 400.231323,126.901077 
	C404.255798,126.901077 407.231842,126.643631 410.145630,126.959846 
	C414.821259,127.467262 418.492767,126.485977 420.290649,121.675407 
	C420.123352,123.562904 419.956055,125.450401 419.768219,127.569717 
	C421.214539,128.036041 422.574585,128.474564 424.108948,129.229340 
	C415.346466,129.545593 406.409668,129.545593 396.648163,129.545593 
	C399.318542,121.342155 402.136688,112.684715 405.260590,103.863922 
z"/>
<path fill="#81899B" opacity="1.000000" stroke="none" 
	d="
M513.956970,80.405815 
	C520.679443,79.084076 527.401917,77.762344 535.821045,76.107025 
	C532.962585,84.861122 530.504822,92.387955 527.631653,99.687141 
	C527.130737,98.548111 527.045227,97.636734 526.910645,96.345184 
	C528.367188,90.850235 529.872803,85.735458 531.528259,80.111763 
	C525.159302,80.955742 519.800659,81.665825 514.299438,81.888657 
	C514.090149,81.069534 514.023560,80.737671 513.956970,80.405815 
z"/>
<path fill="#81899B" opacity="1.000000" stroke="none" 
	d="
M516.887085,133.933075 
	C516.170959,133.857361 515.749817,133.649109 515.148804,132.747986 
	C516.251465,126.510559 517.533875,120.966011 519.167725,115.210670 
	C520.382324,114.294922 521.671631,113.760811 522.034607,112.855347 
	C523.577087,109.007431 524.844971,105.049446 526.470459,101.159012 
	C526.895813,101.224884 527.063965,101.263397 527.232178,101.301910 
	C523.882080,112.134789 520.532043,122.967659 516.887085,133.933075 
z"/>
<path fill="#81899B" opacity="1.000000" stroke="none" 
	d="
M456.084351,145.120102 
	C456.412354,146.128006 456.740356,147.135910 457.117126,148.463425 
	C453.901825,146.933456 450.473267,145.318069 447.417755,143.171600 
	C444.036865,140.796555 440.997375,137.935516 437.723114,134.976608 
	C439.021942,132.085495 440.406921,129.503906 442.195984,127.310577 
	C442.514526,130.098587 441.378784,133.596878 442.532776,134.700089 
	C446.627808,138.615005 451.504059,141.712753 456.084351,145.120102 
z"/>
<path fill="#81899B" opacity="1.000000" stroke="none" 
	d="
M480.201782,74.116669 
	C481.175415,71.846268 482.149048,69.575874 483.344116,66.981842 
	C488.365326,70.390488 493.165131,74.122772 497.841309,78.428925 
	C497.391846,79.420158 497.066010,79.837540 496.407379,80.157913 
	C491.723633,76.952362 487.372620,73.843819 482.736328,70.531433 
	C482.265656,71.572861 481.684021,72.859818 480.876831,74.151718 
	C480.651276,74.156662 480.201813,74.116676 480.201782,74.116669 
z"/>
<path fill="#81899B" opacity="1.000000" stroke="none" 
	d="
M469.106781,52.405586 
	C468.743652,52.865356 468.275238,52.995792 467.106262,53.095566 
	C465.956970,53.019726 465.508209,52.974548 464.782227,52.704216 
	C458.399994,51.373348 452.294922,50.267639 446.189880,49.161930 
	C446.319977,48.572632 446.450043,47.983337 446.794678,47.163857 
	C447.780182,46.649380 448.551117,46.365086 449.907898,46.264687 
	C451.357605,46.498219 452.221527,46.547855 453.085449,46.597488 
	C458.390808,48.423740 463.696136,50.249996 469.106781,52.405586 
z"/>
<path fill="#384666" opacity="1.000000" stroke="none" 
	d="
M527.325012,101.068695 
	C527.063965,101.263397 526.895813,101.224884 526.188110,100.830536 
	C519.721252,100.631744 513.793945,100.788780 507.777588,100.630676 
	C506.791870,99.533913 505.895264,98.752304 504.998657,97.970688 
	C506.049011,97.631462 507.099396,97.292221 508.725250,97.289940 
	C515.319580,99.921722 521.187439,99.259804 526.959717,96.725357 
	C527.045227,97.636734 527.130737,98.548111 527.352478,99.898972 
	C527.465149,100.504112 527.441467,100.669792 527.325012,101.068695 
z"/>
<path fill="#81899B" opacity="1.000000" stroke="none" 
	d="
M472.263580,153.413422 
	C472.084900,152.503876 472.161133,151.915619 472.919769,151.230743 
	C478.778809,151.493225 483.955444,151.852295 489.132111,152.211365 
	C489.118896,152.639648 489.105682,153.067932 489.041626,153.819153 
	C483.500061,154.006302 478.009277,153.870499 472.263580,153.413422 
z"/>
<path fill="#81899B" opacity="1.000000" stroke="none" 
	d="
M460.890015,150.681793 
	C462.780792,150.831802 464.809021,151.303177 467.040344,152.052734 
	C465.171448,151.888336 463.099457,151.445770 460.890015,150.681793 
z"/>
<path fill="#81899B" opacity="1.000000" stroke="none" 
	d="
M513.714905,144.169968 
	C513.778137,142.666122 514.125427,141.028320 514.779053,139.194794 
	C514.723267,140.678055 514.361084,142.357025 513.714905,144.169968 
z"/>
<path fill="#384666" opacity="1.000000" stroke="none" 
	d="
M496.740143,80.254921 
	C497.066010,79.837540 497.391846,79.420158 497.993652,78.714096 
	C499.603210,78.771507 500.936859,79.117592 502.492981,79.719589 
	C501.094971,80.313759 499.474426,80.652008 497.334198,80.847801 
	C496.814484,80.705338 496.740143,80.254921 496.740143,80.254921 
z"/>
<path fill="#E1E4EA" opacity="1.000000" stroke="none" 
	d="
M408.465332,93.026505 
	C408.366638,94.496483 407.945984,96.026184 407.266296,97.779312 
	C407.385956,96.363907 407.764648,94.725067 408.465332,93.026505 
z"/>
<path fill="#E1E4EA" opacity="1.000000" stroke="none" 
	d="
M452.995148,46.312263 
	C452.221527,46.547855 451.357605,46.498219 450.244629,46.233376 
	C450.965302,46.021126 451.935089,46.024082 452.995148,46.312263 
z"/>
<path fill="#E1E4EA" opacity="1.000000" stroke="none" 
	d="
M438.976929,46.273361 
	C438.283661,46.800526 437.521423,47.021198 436.375244,47.109604 
	C436.963531,46.640514 437.935730,46.303692 438.976929,46.273361 
z"/>
<path fill="#81899B" opacity="1.000000" stroke="none" 
	d="
M426.199219,130.250198 
	C426.717316,130.029358 427.434448,130.066910 428.201935,130.357697 
	C427.634277,130.576843 427.016266,130.542709 426.199219,130.250198 
z"/>
<path fill="#E1E4EA" opacity="1.000000" stroke="none" 
	d="
M429.997803,47.289719 
	C429.599976,47.757954 429.154114,47.953594 428.349304,48.041931 
	C428.643494,47.628796 429.296631,47.322960 429.997803,47.289719 
z"/>
<path fill="#384666" opacity="1.000000" stroke="none" 
	d="
M513.712158,80.395561 
	C514.023560,80.737671 514.090149,81.069534 514.142212,82.109589 
	C513.794922,82.944809 513.462219,83.071831 513.129517,83.198860 
	C513.095764,82.648407 513.062012,82.097946 513.070190,81.135178 
	C513.112061,80.722870 513.467346,80.385307 513.712158,80.395561 
z"/>
<path fill="#FAFBFC" opacity="1.000000" stroke="none" 
	d="
M1485.000854,306.932251 
	C1479.844116,319.552734 1472.805054,329.942017 1459.562378,334.570770 
	C1450.225830,337.834229 1440.663086,338.514435 1431.036255,336.386993 
	C1420.464355,334.050690 1415.404785,327.378418 1416.293213,316.547760 
	C1416.780273,310.611938 1417.744995,304.589905 1419.470215,298.902771 
	C1426.910400,274.376404 1434.226929,249.793594 1442.524170,225.551590 
	C1450.112305,203.381012 1468.143555,191.667282 1490.289795,192.940933 
	C1505.339722,193.806458 1513.240723,202.183136 1511.240112,217.087601 
	C1509.857300,227.389435 1506.797729,237.532776 1503.784058,247.535034 
	C1497.830444,267.293915 1491.389038,286.905792 1485.000854,306.932251 
z"/>
<path fill="#F6F7F9" opacity="1.000000" stroke="none" 
	d="
M846.973999,287.175690 
	C836.175537,287.176025 825.871521,287.176025 814.745667,287.176025 
	C815.305054,285.183502 815.519226,283.792908 816.069885,282.551544 
	C827.283875,257.272949 838.620117,232.048019 849.691833,206.707489 
	C851.373108,202.859222 853.527161,201.467941 857.606750,201.740097 
	C862.539978,202.069199 867.511841,201.818085 873.056213,201.818085 
	C872.832520,204.018005 872.767334,205.614105 872.496948,207.174652 
	C868.315857,231.307343 864.088501,255.432037 859.917786,279.566528 
	C858.605164,287.161987 858.667053,287.172791 850.968018,287.175537 
	C849.801514,287.175964 848.634949,287.175446 846.973999,287.175690 
z"/>
<path fill="#F7F8FA" opacity="1.000000" stroke="none" 
	d="
M1086.699829,255.830994 
	C1079.469360,256.971313 1072.627441,258.439606 1065.722534,258.852844 
	C1057.308716,259.356354 1048.841919,258.972565 1039.424316,258.972565 
	C1041.250488,252.903259 1042.784546,247.713074 1044.373901,242.539902 
	C1048.821167,228.065353 1053.204712,213.569733 1057.877075,199.167969 
	C1058.382446,197.610199 1060.592285,195.552063 1062.046387,195.523727 
	C1072.687988,195.316208 1083.371704,195.078537 1093.978027,195.796753 
	C1107.659058,196.723114 1113.411377,205.253387 1109.877563,218.512863 
	C1108.165771,224.935425 1106.161133,231.301590 1103.888672,237.547623 
	C1100.856689,245.880783 1095.311157,252.093475 1086.699829,255.830994 
z"/>
<path fill="#F6F7F9" opacity="1.000000" stroke="none" 
	d="
M420.412903,121.309219 
	C418.492767,126.485977 414.821259,127.467262 410.145630,126.959846 
	C407.231842,126.643631 404.255798,126.901077 400.231323,126.901077 
	C403.179626,119.744598 403.277466,112.161942 408.757904,106.147125 
	C414.061737,105.937073 419.117249,105.979172 424.648132,105.997261 
	C424.905304,106.995567 424.687134,108.017883 424.153748,109.522285 
	C423.633911,110.290131 423.640137,110.571136 423.857178,110.847382 
	C423.419891,112.220055 422.982605,113.592728 422.155029,115.485611 
	C421.822815,116.774490 421.880890,117.543152 421.938965,118.311829 
	C421.471039,119.188896 421.003082,120.065964 420.412903,121.309219 
z"/>
<path fill="#FDFDFE" opacity="1.000000" stroke="none" 
	d="
M438.332672,108.742928 
	C437.065979,108.302277 435.799255,107.861633 434.215576,106.860680 
	C433.088257,104.171089 428.621216,106.103111 429.454895,101.730591 
	C431.985809,88.456421 435.824371,86.017860 448.517853,90.787354 
	C450.049438,91.362839 450.934875,93.657875 452.064880,95.507042 
	C451.535309,97.200165 451.060608,98.542175 450.321167,99.946228 
	C450.064148,100.678291 450.071869,101.348312 450.078979,102.388199 
	C449.927429,103.481369 449.776550,104.204674 449.370056,105.088867 
	C449.072449,105.831635 449.030487,106.413513 448.776123,107.245087 
	C448.339172,108.320427 448.114655,109.146088 447.595490,110.207947 
	C447.192719,110.932419 447.084625,111.420692 446.548553,111.925468 
	C444.763214,111.590828 443.405914,111.239693 442.048584,110.888557 
	C441.948639,110.544701 441.732941,110.304947 441.143250,109.634811 
	C440.034210,108.981194 439.183441,108.862061 438.332672,108.742928 
z"/>
<path fill="#FDFDFE" opacity="1.000000" stroke="none" 
	d="
M456.247681,144.786346 
	C451.504059,141.712753 446.627808,138.615005 442.532776,134.700089 
	C441.378784,133.596878 442.514526,130.098587 442.544556,127.306801 
	C442.952972,125.194992 443.416840,123.475212 444.385284,121.394455 
	C447.274689,119.601120 449.659485,118.168747 452.353516,116.812218 
	C453.474701,117.538086 454.286652,118.188110 455.058289,119.208725 
	C457.334259,122.056618 459.650543,124.533913 461.990204,127.287491 
	C462.092499,127.730919 462.171417,127.898071 462.250336,128.065231 
	C461.624756,129.524734 460.999207,130.984238 459.844666,132.738922 
	C458.483704,133.497452 457.651764,133.960800 456.037781,134.859711 
	C457.741089,134.963943 458.496429,135.010162 459.251770,135.056396 
	C458.304840,138.188461 457.357910,141.320526 456.247681,144.786346 
z"/>
<path fill="#C4CBDA" opacity="1.000000" stroke="none" 
	d="
M452.119812,95.155945 
	C450.934875,93.657875 450.049438,91.362839 448.517853,90.787354 
	C435.824371,86.017860 431.985809,88.456421 429.454895,101.730591 
	C428.621216,106.103111 433.088257,104.171089 433.947784,106.652641 
	C431.982727,106.662292 429.968414,106.319679 427.579285,105.935593 
	C429.112366,99.502747 431.020264,93.111366 432.987152,86.348221 
	C433.046173,85.976448 433.011292,86.042366 433.390045,86.104721 
	C435.169556,86.147499 436.570343,86.127914 438.182251,86.303955 
	C438.951721,86.535706 439.510040,86.571823 440.406006,86.774765 
	C441.488098,86.986198 442.232513,87.030815 443.179626,87.281891 
	C443.941559,87.552582 444.500824,87.616798 445.370544,87.851158 
	C447.040955,88.390106 448.400909,88.758919 449.987549,89.386414 
	C451.617493,89.869873 453.360992,92.822868 454.475647,88.989349 
	C454.819916,88.512413 455.066071,88.303108 455.578064,88.662369 
	C455.844727,90.367188 455.946320,91.621948 455.718750,92.942154 
	C454.952667,93.061424 454.515747,93.115257 453.780670,93.202194 
	C453.028290,93.875526 452.574036,94.515739 452.119812,95.155945 
z"/>
<path fill="#C4CBDA" opacity="1.000000" stroke="none" 
	d="
M452.044312,116.736382 
	C449.659485,118.168747 447.274689,119.601120 444.527832,121.041611 
	C444.669067,119.008873 445.172394,116.968002 445.884094,114.276978 
	C446.353821,113.050613 446.615173,112.474403 446.981445,112.316490 
	C447.746307,113.116829 448.406219,113.498871 449.266968,114.106461 
	C450.326599,115.133476 451.185455,115.934929 452.044312,116.736382 
z"/>
<path fill="#243559" opacity="1.000000" stroke="none" 
	d="
M446.876526,111.898186 
	C446.615173,112.474403 446.353821,113.050613 445.883392,113.866325 
	C444.478210,113.280525 443.282074,112.455223 442.067261,111.259239 
	C443.405914,111.239693 444.763214,111.590828 446.525574,111.911560 
	C446.930634,111.881157 446.876526,111.898186 446.876526,111.898186 
z"/>
<path fill="#C4CBDA" opacity="1.000000" stroke="none" 
	d="
M438.526367,108.990883 
	C439.183441,108.862061 440.034210,108.981194 440.968811,109.457260 
	C440.275116,109.622406 439.497559,109.430618 438.526367,108.990883 
z"/>
<path fill="#81899B" opacity="1.000000" stroke="none" 
	d="
M422.213257,118.142456 
	C421.880890,117.543152 421.822815,116.774490 422.047363,115.828987 
	C422.382507,116.425797 422.435028,117.199440 422.213257,118.142456 
z"/>
<path fill="#81899B" opacity="1.000000" stroke="none" 
	d="
M424.092712,110.758621 
	C423.640137,110.571136 423.633911,110.290131 424.037445,109.898972 
	C424.309937,109.982735 424.406952,110.167145 424.446594,110.363159 
	C424.464905,110.453712 424.371185,110.566925 424.092712,110.758621 
z"/>
<path fill="#021846" opacity="1.000000" stroke="none" 
	d="
M449.760864,89.127731 
	C448.400909,88.758919 447.040955,88.390106 445.324402,87.577019 
	C444.304169,87.113640 443.640564,87.094536 442.976929,87.075432 
	C442.232513,87.030815 441.488098,86.986198 440.351746,86.506073 
	C439.296936,86.083153 438.634003,86.095749 437.971100,86.108337 
	C436.570343,86.127914 435.169556,86.147499 433.353455,86.097664 
	C433.253601,84.583839 433.569092,83.139435 434.423645,81.295395 
	C435.790161,78.944527 437.016205,77.062332 437.368500,75.028763 
	C438.330170,69.477585 441.147400,66.924194 446.923370,67.880852 
	C447.879761,68.039253 448.997345,67.224480 450.390808,66.855362 
	C451.190979,66.783768 451.640778,66.716248 452.396423,66.769867 
	C453.138794,66.910019 453.575256,66.929024 454.109314,67.190933 
	C454.459259,67.674309 454.711578,67.914772 455.000305,68.443863 
	C455.706299,68.765633 456.375824,68.798767 457.361816,68.852631 
	C458.647949,69.994614 459.617645,71.115875 460.289185,72.238281 
	C459.984894,72.827354 459.978699,73.415291 459.980957,74.357742 
	C459.898163,75.175232 459.806885,75.638214 459.591614,76.197037 
	C459.467651,76.292885 459.467743,76.606285 459.323944,76.704025 
	C459.180145,76.801758 458.865509,76.949883 458.503296,77.029594 
	C457.802643,78.482513 457.464203,79.855721 457.125122,81.543571 
	C457.178223,82.264015 457.231964,82.669823 457.087585,83.367264 
	C456.397369,85.176704 455.905182,86.694511 455.413025,88.212311 
	C455.066071,88.303108 454.819916,88.512413 454.024597,88.953522 
	C452.170044,89.087128 450.965454,89.107430 449.760864,89.127731 
z"/>
<path fill="#243559" opacity="1.000000" stroke="none" 
	d="
M450.040436,66.859436 
	C448.997345,67.224480 447.879761,68.039253 446.923370,67.880852 
	C441.147400,66.924194 438.330170,69.477585 437.368500,75.028763 
	C437.016205,77.062332 435.790161,78.944527 434.623291,80.973953 
	C435.500488,76.638321 436.717072,72.224503 437.957581,67.424492 
	C438.687500,65.720482 439.393494,64.402672 440.478821,63.398537 
	C441.610229,64.355331 442.362366,64.998459 443.538422,65.722359 
	C445.982452,65.837570 448.002563,65.872002 450.016693,66.144867 
	C450.010712,66.383316 450.040436,66.859428 450.040436,66.859436 
z"/>
<path fill="#243559" opacity="1.000000" stroke="none" 
	d="
M424.270508,67.776108 
	C424.851746,67.273323 425.754974,66.872414 426.827637,66.728806 
	C426.195526,67.283386 425.394012,67.580681 424.270508,67.776108 
z"/>
<path fill="#243559" opacity="1.000000" stroke="none" 
	d="
M418.525269,65.205147 
	C419.210510,65.679512 419.617249,66.417366 420.027039,67.495033 
	C417.022339,68.864883 417.767059,67.066895 418.525269,65.205147 
z"/>
<path fill="#243559" opacity="1.000000" stroke="none" 
	d="
M421.543274,56.120392 
	C421.733032,56.612137 421.683929,57.285355 421.334442,57.983879 
	C421.124176,57.440079 421.214294,56.870972 421.543274,56.120392 
z"/>
<path fill="#243559" opacity="1.000000" stroke="none" 
	d="
M413.962769,79.968163 
	C413.962769,80.858429 413.962769,81.748688 413.962769,82.638954 
	C413.733368,82.629219 413.503998,82.619476 413.274597,82.609734 
	C413.327942,81.860741 413.381287,81.111748 413.723419,80.187393 
	C414.012177,80.012039 413.962769,79.968163 413.962769,79.968163 
z"/>
<path fill="#243559" opacity="1.000000" stroke="none" 
	d="
M415.625031,76.534035 
	C415.486450,76.314789 415.505707,75.920380 415.524994,75.525963 
	C415.610962,75.803596 415.696930,76.081230 415.625031,76.534035 
z"/>
<path fill="#243559" opacity="1.000000" stroke="none" 
	d="
M414.037170,80.033676 
	C414.113403,79.486252 414.164673,78.917198 414.215912,78.348137 
	C414.414124,78.372017 414.612335,78.395905 414.810547,78.419785 
	C414.738434,78.929710 414.666351,79.439636 414.278503,79.958862 
	C413.962769,79.968163 414.012177,80.012039 414.037170,80.033676 
z"/>
<path fill="#F6F7F9" opacity="1.000000" stroke="none" 
	d="
M489.340393,151.918060 
	C483.955444,151.852295 478.778809,151.493225 473.174591,151.063202 
	C472.732239,150.535828 472.717407,150.079437 472.925903,149.019196 
	C474.083130,145.275436 475.017059,142.135529 475.950989,138.995636 
	C476.593048,137.525665 477.235138,136.055695 478.030823,134.084198 
	C478.367218,133.421875 478.492950,133.224655 478.813202,132.966278 
	C479.401764,132.950577 479.738678,132.959641 480.507202,132.899109 
	C485.240356,133.344086 489.541870,133.858673 493.923828,134.753876 
	C494.256531,135.866226 494.508789,136.597977 494.761078,137.329712 
	C493.023590,142.094727 491.286133,146.859741 489.340393,151.918060 
z"/>
<path fill="#FAFBFC" opacity="1.000000" stroke="none" 
	d="
M518.816345,115.421471 
	C517.533875,120.966011 516.251465,126.510559 514.977905,132.430573 
	C509.660156,133.195038 504.333466,133.584015 498.492676,133.528625 
	C499.070068,126.146454 499.953339,119.103615 507.420105,115.205147 
	C509.452393,115.323334 511.077423,115.413040 512.812744,115.760101 
	C514.044495,115.837357 515.165955,115.657257 516.603149,115.461029 
	C517.551392,115.437096 518.183838,115.429283 518.816345,115.421471 
z"/>
<path fill="#81899B" opacity="1.000000" stroke="none" 
	d="
M507.012878,115.176666 
	C499.953339,119.103615 499.070068,126.146454 498.033875,133.490662 
	C497.153168,134.925064 496.217163,135.953064 495.021118,137.155396 
	C494.508789,136.597977 494.256531,135.866226 494.236572,134.512375 
	C496.465088,128.877228 498.643036,123.923668 500.317444,118.805382 
	C500.691620,117.661659 499.298615,115.939835 499.046875,114.311111 
	C500.734406,113.719040 502.094238,113.300011 503.729919,113.125237 
	C505.008148,113.971878 506.010529,114.574272 507.012878,115.176666 
z"/>
<path fill="#FDFDFE" opacity="1.000000" stroke="none" 
	d="
M450.022675,65.906425 
	C448.002563,65.872002 445.982452,65.837570 443.517792,65.355042 
	C443.050415,62.938618 443.027588,60.970287 443.026001,58.635033 
	C443.107727,57.546444 443.168213,56.824780 443.228699,56.103119 
	C444.099731,53.988956 444.970764,51.874794 446.015839,49.461281 
	C452.294922,50.267639 458.399994,51.373348 464.792969,53.072990 
	C465.508728,54.467243 465.936584,55.267563 466.364441,56.067883 
	C466.275238,56.498821 466.186035,56.929760 465.577759,57.717899 
	C464.254669,60.934380 463.450623,63.793659 462.646606,66.652939 
	C462.556091,66.974274 462.465546,67.295609 461.853943,67.818253 
	C458.892456,67.662376 456.452118,67.305199 454.011749,66.948013 
	C453.575256,66.929024 453.138794,66.910019 452.365356,66.502541 
	C451.359863,66.044846 450.691254,65.975632 450.022675,65.906425 
z"/>
<path fill="#C4CBDA" opacity="1.000000" stroke="none" 
	d="
M443.004730,59.001961 
	C443.027588,60.970287 443.050415,62.938618 443.093872,65.274261 
	C442.362366,64.998459 441.610229,64.355331 440.796143,63.331100 
	C441.151886,61.877445 441.569611,60.804893 442.248627,59.362099 
	C442.509949,58.991856 443.004730,59.001961 443.004730,59.001961 
z"/>
<path fill="#243559" opacity="1.000000" stroke="none" 
	d="
M443.026001,58.635033 
	C443.004730,59.001961 442.509949,58.991856 442.263428,59.013428 
	C442.218018,58.037472 442.419067,57.039944 442.924377,56.072769 
	C443.168213,56.824780 443.107727,57.546444 443.026001,58.635033 
z"/>
<path fill="#FDFDFE" opacity="1.000000" stroke="none" 
	d="
M480.075562,132.968689 
	C479.738678,132.959641 479.401764,132.950577 478.621460,132.643768 
	C477.472473,132.180130 476.766876,132.014236 476.061310,131.848343 
	C475.181427,131.412689 474.301514,130.977051 473.048798,130.039474 
	C472.051971,129.401428 471.427948,129.265335 470.600708,129.096588 
	C470.397491,129.063965 470.057220,128.832169 469.985352,128.497986 
	C468.274261,127.443886 466.635010,126.723976 464.997864,126.002052 
	C465.000000,126.000046 464.995911,126.004456 465.000885,125.534607 
	C464.830139,123.832710 464.654419,122.600662 464.489258,121.114113 
	C464.679047,120.577431 464.858307,120.295235 465.410736,119.936844 
	C465.842682,119.008072 465.901459,118.155487 466.018433,116.926804 
	C466.446381,115.052788 466.816071,113.554871 467.395905,112.080444 
	C467.606079,112.103935 467.953064,111.862030 468.143341,112.043991 
	C468.316345,111.597618 468.299103,110.969284 468.299377,109.975647 
	C468.627716,108.437195 468.938507,107.264038 469.442505,106.157814 
	C469.635742,106.224747 470.011505,106.063347 470.250580,106.341599 
	C471.889984,106.862556 473.290344,107.105270 475.011597,107.454514 
	C477.192505,108.477127 479.052460,109.393227 480.877472,110.673080 
	C482.305603,111.720757 483.768707,112.404678 485.237976,113.463280 
	C484.443939,115.876556 483.643738,117.915161 482.504089,120.005928 
	C481.210175,121.910927 480.063812,123.696732 479.383026,125.645210 
	C479.048584,126.602425 479.576935,127.861107 479.693237,129.397903 
	C479.806274,130.864532 479.940918,131.916611 480.075562,132.968689 
z"/>
<path fill="#142850" opacity="1.000000" stroke="none" 
	d="
M475.596588,139.049042 
	C475.017059,142.135529 474.083130,145.275436 472.882812,148.678360 
	C473.491669,145.661728 474.366913,142.382080 475.596588,139.049042 
z"/>
<path fill="#C4CBDA" opacity="1.000000" stroke="none" 
	d="
M464.995758,126.004059 
	C466.635010,126.723976 468.274261,127.443886 469.699402,128.615677 
	C469.293243,129.142410 469.101196,129.217255 468.909180,129.292084 
	C468.188843,128.884018 467.468506,128.475952 466.343628,127.719139 
	C465.624634,126.914955 465.310181,126.459503 464.995758,126.004059 
z"/>
<path fill="#384666" opacity="1.000000" stroke="none" 
	d="
M464.997864,126.002052 
	C465.310181,126.459503 465.624634,126.914955 466.043488,127.636673 
	C465.108124,127.955086 464.068359,128.007248 462.639465,128.062317 
	C462.171417,127.898071 462.092499,127.730919 462.241364,127.059555 
	C463.311401,126.371712 464.153656,126.188087 464.995911,126.004456 
	C464.995911,126.004456 465.000000,126.000046 464.997864,126.002052 
z"/>
<path fill="#E1E4EA" opacity="1.000000" stroke="none" 
	d="
M459.506958,134.894287 
	C458.496429,135.010162 457.741089,134.963943 456.037781,134.859711 
	C457.651764,133.960800 458.483704,133.497452 459.640411,133.014282 
	C459.897491,133.573715 459.829803,134.152954 459.506958,134.894287 
z"/>
<path fill="#384666" opacity="1.000000" stroke="none" 
	d="
M468.945740,129.558502 
	C469.101196,129.217255 469.293243,129.142410 469.771271,128.949860 
	C470.057220,128.832169 470.397491,129.063965 470.638123,129.352753 
	C470.913544,129.810577 470.948334,129.979645 470.983124,130.148697 
	C470.316193,130.040771 469.649231,129.932861 468.945740,129.558502 
z"/>
<path fill="#142850" opacity="1.000000" stroke="none" 
	d="
M476.092896,132.236832 
	C476.766876,132.014236 477.472473,132.180130 478.369781,132.668518 
	C478.492950,133.224655 478.367218,133.421875 478.036316,133.677231 
	C477.300323,133.389633 476.712372,133.007477 476.092896,132.236832 
z"/>
<path fill="#C4CBDA" opacity="1.000000" stroke="none" 
	d="
M471.317810,130.178436 
	C470.948334,129.979645 470.913544,129.810577 470.841370,129.385376 
	C471.427948,129.265335 472.051971,129.401428 472.823669,129.838654 
	C472.531738,130.162567 472.092102,130.185364 471.317810,130.178436 
z"/>
<path fill="#FDFDFE" opacity="1.000000" stroke="none" 
	d="
M459.715576,76.101189 
	C459.806885,75.638214 459.898163,75.175232 460.176331,74.160278 
	C460.399414,73.426743 460.435669,73.245178 460.820953,73.112427 
	C462.792114,73.054893 464.414215,72.948547 466.036346,72.842194 
	C466.557953,73.092102 467.079590,73.342010 467.822388,74.188591 
	C469.210175,75.386818 470.376801,75.988373 471.543427,76.589920 
	C471.980743,76.852158 472.418030,77.114403 472.967407,77.992020 
	C475.160492,82.235603 472.396362,98.058952 469.100220,100.760284 
	C468.546936,101.213745 467.506073,101.072273 466.438873,101.097458 
	C465.740051,100.682755 465.292877,100.376289 464.837982,99.723175 
	C462.855133,97.991692 460.879974,96.606857 458.729370,94.963493 
	C457.718567,94.095551 456.883240,93.486137 456.047913,92.876724 
	C455.946320,91.621948 455.844727,90.367188 455.578064,88.662369 
	C455.905182,86.694511 456.397369,85.176704 457.391113,83.322037 
	C458.202118,81.648125 458.511536,80.311073 458.855530,78.633736 
	C458.881927,77.845596 458.873718,77.397736 458.865509,76.949883 
	C458.865509,76.949883 459.180145,76.801758 459.525543,76.787872 
	C459.997437,76.708984 460.123932,76.643990 460.250427,76.578979 
	C460.072144,76.419716 459.893890,76.260452 459.715576,76.101189 
z"/>
<path fill="#C4CBDA" opacity="1.000000" stroke="none" 
	d="
M466.690521,101.205688 
	C467.506073,101.072273 468.546936,101.213745 469.100220,100.760284 
	C472.396362,98.058952 475.160492,82.235603 473.087769,78.220993 
	C474.439331,78.661240 475.782593,79.487892 477.733124,80.688240 
	C478.515228,78.570915 479.212585,76.682961 480.055878,74.455841 
	C480.201813,74.116676 480.651276,74.156662 480.868286,74.558151 
	C480.691193,77.699081 480.297119,80.438538 479.555908,83.184837 
	C478.445923,83.787392 477.682983,84.383095 476.671936,85.232925 
	C475.368774,89.020905 474.313751,92.554756 473.100800,96.386520 
	C472.603516,97.752777 472.264191,98.821129 471.689026,100.163094 
	C470.276428,101.339775 469.099701,102.242851 467.755951,102.902863 
	C467.289459,102.175102 466.989990,101.690399 466.690521,101.205688 
z"/>
<path fill="#C4CBDA" opacity="1.000000" stroke="none" 
	d="
M465.914429,72.540390 
	C464.414215,72.948547 462.792114,73.054893 460.902832,72.913193 
	C460.635681,72.665138 460.587311,72.237144 460.587311,72.237144 
	C459.617645,71.115875 458.647949,69.994614 457.171631,68.631462 
	C456.097931,68.311462 455.530914,68.233353 454.963898,68.155243 
	C454.711578,67.914772 454.459259,67.674309 454.109314,67.190933 
	C456.452118,67.305199 458.892456,67.662376 461.717834,68.030289 
	C463.332703,69.440208 464.562592,70.839394 465.914429,72.540390 
z"/>
<path fill="#C4CBDA" opacity="1.000000" stroke="none" 
	d="
M462.915802,66.425156 
	C463.450623,63.793659 464.254669,60.934380 465.400330,57.998497 
	C464.889618,60.680393 464.037323,63.438885 462.915802,66.425156 
z"/>
<path fill="#C4CBDA" opacity="1.000000" stroke="none" 
	d="
M471.412415,76.286034 
	C470.376801,75.988373 469.210175,75.386818 468.010620,74.413086 
	C469.078949,74.687988 470.180176,75.335068 471.412415,76.286034 
z"/>
<path fill="#C4CBDA" opacity="1.000000" stroke="none" 
	d="
M466.634430,55.861855 
	C465.936584,55.267563 465.508728,54.467243 465.070160,53.298149 
	C465.508209,52.974548 465.956970,53.019726 466.743774,53.038544 
	C467.022675,53.893398 466.963531,54.774612 466.634430,55.861855 
z"/>
<path fill="#F6F7F9" opacity="1.000000" stroke="none" 
	d="
M513.093140,83.544327 
	C513.462219,83.071831 513.794922,82.944809 514.284851,82.596848 
	C519.800659,81.665825 525.159302,80.955742 531.528259,80.111763 
	C529.872803,85.735458 528.367188,90.850235 526.910645,96.345184 
	C521.187439,99.259804 515.319580,99.921722 509.077881,97.297455 
	C509.088470,96.407631 509.321991,95.847237 509.849579,94.744949 
	C511.000519,91.444855 511.857361,88.686653 512.714233,85.928459 
	C512.828430,85.248909 512.942566,84.569351 513.093140,83.544327 
z"/>
<path fill="#F6F7F9" opacity="1.000000" stroke="none" 
	d="
M503.454041,112.880981 
	C502.094238,113.300011 500.734406,113.719040 498.647034,114.210678 
	C494.485626,113.674187 491.051788,113.065079 487.508057,112.121689 
	C487.096252,111.151588 486.794342,110.515778 486.629578,109.662354 
	C486.772827,109.273392 486.778931,109.102020 487.089569,108.735687 
	C488.008606,106.864365 488.510773,105.135719 489.261230,103.522598 
	C490.791077,100.234222 492.454681,97.008110 494.063202,93.756363 
	C494.346985,93.946083 494.630798,94.135803 495.330078,94.646683 
	C496.520294,95.218513 497.294952,95.469177 498.069641,95.719849 
	C498.620758,95.994904 499.171906,96.269966 500.227600,96.817673 
	C501.523254,97.232399 502.314331,97.374481 503.105438,97.516563 
	C503.515717,97.669800 503.925964,97.823036 504.667450,97.973480 
	C505.895264,98.752304 506.791870,99.533913 507.541565,100.902771 
	C506.081085,105.287010 504.767548,109.084000 503.454041,112.880981 
z"/>
<path fill="#FAFBFC" opacity="1.000000" stroke="none" 
	d="
M479.903015,83.177994 
	C480.297119,80.438538 480.691193,77.699081 481.093811,74.553207 
	C481.684021,72.859818 482.265656,71.572861 482.736328,70.531433 
	C487.372620,73.843819 491.723633,76.952362 496.407379,80.157913 
	C496.740143,80.254921 496.814484,80.705338 496.973999,80.868637 
	C496.017975,83.987976 494.902466,86.944008 493.402252,90.456017 
	C491.974243,91.211662 490.930939,91.411339 489.687073,91.359962 
	C488.752869,90.681610 488.019257,90.254303 487.190613,89.502777 
	C486.151917,88.637344 485.208252,88.096123 484.083435,87.302338 
	C482.569214,85.759163 481.236145,84.468575 479.903015,83.177994 
z"/>
<path fill="#384666" opacity="1.000000" stroke="none" 
	d="
M489.887634,91.611008 
	C490.930939,91.411339 491.974243,91.211662 493.392334,90.816406 
	C493.883118,91.402161 493.999115,92.183487 494.089172,93.360588 
	C492.454681,97.008110 490.791077,100.234222 489.261230,103.522598 
	C488.510773,105.135719 488.008606,106.864365 486.837158,108.507156 
	C486.668793,106.762375 487.078186,105.055580 487.441650,103.339058 
	C488.268982,99.432243 489.073730,95.520653 489.887634,91.611008 
z"/>
<path fill="#384666" opacity="1.000000" stroke="none" 
	d="
M512.372070,86.009117 
	C511.857361,88.686653 511.000519,91.444855 509.883179,94.442001 
	C510.425079,91.817230 511.227509,88.953506 512.372070,86.009117 
z"/>
<path fill="#384666" opacity="1.000000" stroke="none" 
	d="
M502.978760,97.193497 
	C502.314331,97.374481 501.523254,97.232399 500.538086,96.837044 
	C501.180023,96.679321 502.016052,96.774879 502.978760,97.193497 
z"/>
<path fill="#384666" opacity="1.000000" stroke="none" 
	d="
M497.987244,95.376007 
	C497.294952,95.469177 496.520294,95.218513 495.584351,94.691269 
	C496.250366,94.620522 497.077606,94.826347 497.987244,95.376007 
z"/>
<path fill="#021846" opacity="1.000000" stroke="none" 
	d="
M503.729889,113.125237 
	C504.767548,109.084000 506.081085,105.287010 507.630646,101.217918 
	C513.793945,100.788780 519.721252,100.631744 525.930847,100.803177 
	C524.844971,105.049446 523.577087,109.007431 522.034607,112.855347 
	C521.671631,113.760811 520.382324,114.294922 519.167725,115.210670 
	C518.183838,115.429283 517.551392,115.437096 516.180664,115.236557 
	C514.529053,115.186394 513.615784,115.344574 512.702454,115.502747 
	C511.077423,115.413040 509.452393,115.323334 507.420105,115.205139 
	C506.010529,114.574272 505.008148,113.971878 503.729889,113.125237 
z"/>
<path fill="#021846" opacity="1.000000" stroke="none" 
	d="
M466.438873,101.097458 
	C466.989990,101.690399 467.289459,102.175102 467.763275,103.251144 
	C468.374847,104.591957 468.812073,105.341415 469.249298,106.090881 
	C468.938507,107.264038 468.627716,108.437195 468.225952,109.988281 
	C468.135010,110.366211 468.001587,110.434265 467.784912,110.266861 
	C467.440735,110.751961 467.313263,111.404457 467.185730,112.056946 
	C466.816071,113.554871 466.446381,115.052788 465.762268,117.100594 
	C465.311066,118.437996 465.174286,119.225510 465.037537,120.013031 
	C464.858307,120.295235 464.679047,120.577431 464.278748,121.229897 
	C463.916870,121.889328 463.747833,122.160881 463.118042,122.322159 
	C461.808228,122.141327 460.930817,122.053162 459.765106,121.810822 
	C458.017395,120.717140 456.557983,119.777641 455.098602,118.838135 
	C454.286652,118.188110 453.474701,117.538086 452.353516,116.812225 
	C451.185455,115.934929 450.326599,115.133476 449.257538,113.744400 
	C448.661591,112.095108 448.275879,111.033432 447.890167,109.971748 
	C448.114655,109.146088 448.339172,108.320427 449.084229,107.226074 
	C449.611755,106.280907 449.618713,105.604439 449.625702,104.927979 
	C449.776550,104.204674 449.927429,103.481369 450.320953,102.312607 
	C450.766937,101.597015 450.970276,101.326881 451.519775,100.969009 
	C452.603516,98.310539 453.341156,95.739807 454.078796,93.169083 
	C454.515747,93.115257 454.952667,93.061424 455.718750,92.942169 
	C456.883240,93.486137 457.718567,94.095551 458.759613,95.298172 
	C460.925446,97.284203 462.885559,98.677010 464.845703,100.069824 
	C465.292877,100.376289 465.740051,100.682755 466.438873,101.097458 
z"/>
<path fill="#384666" opacity="1.000000" stroke="none" 
	d="
M453.780670,93.202194 
	C453.341156,95.739807 452.603516,98.310539 451.379456,100.672501 
	C450.790680,100.270546 450.688293,100.077370 450.585876,99.884186 
	C451.060608,98.542175 451.535309,97.200165 452.064911,95.507050 
	C452.574036,94.515739 453.028290,93.875526 453.780670,93.202194 
z"/>
<path fill="#384666" opacity="1.000000" stroke="none" 
	d="
M447.595490,110.207947 
	C448.275879,111.033432 448.661591,112.095108 449.056702,113.518852 
	C448.406219,113.498871 447.746307,113.116829 446.981445,112.316490 
	C446.876526,111.898186 446.930634,111.881157 446.953613,111.895065 
	C447.084625,111.420692 447.192719,110.932419 447.595490,110.207947 
z"/>
<path fill="#C4CBDA" opacity="1.000000" stroke="none" 
	d="
M450.321167,99.946228 
	C450.688293,100.077370 450.790680,100.270546 451.033325,100.760239 
	C450.970276,101.326881 450.766937,101.597015 450.321594,101.942734 
	C450.071869,101.348312 450.064148,100.678291 450.321167,99.946228 
z"/>
<path fill="#384666" opacity="1.000000" stroke="none" 
	d="
M449.370056,105.088867 
	C449.618713,105.604439 449.611755,106.280907 449.296661,106.976379 
	C449.030487,106.413513 449.072449,105.831635 449.370056,105.088867 
z"/>
<path fill="#C4CBDA" opacity="1.000000" stroke="none" 
	d="
M455.058289,119.208733 
	C456.557983,119.777641 458.017395,120.717140 459.885223,122.128853 
	C461.441772,123.631912 462.642151,125.576538 463.550507,122.414833 
	C463.747833,122.160881 463.916870,121.889328 464.268188,121.484390 
	C464.654419,122.600662 464.830139,123.832710 465.000885,125.534607 
	C464.153656,126.188087 463.311401,126.371712 462.217987,126.783279 
	C459.650543,124.533913 457.334259,122.056618 455.058289,119.208733 
z"/>
<path fill="#243559" opacity="1.000000" stroke="none" 
	d="
M449.987549,89.386414 
	C450.965454,89.107430 452.170044,89.087128 453.825684,89.102654 
	C453.360992,92.822868 451.617493,89.869873 449.987549,89.386414 
z"/>
<path fill="#243559" opacity="1.000000" stroke="none" 
	d="
M443.179626,87.281891 
	C443.640564,87.094536 444.304169,87.113640 445.013916,87.406883 
	C444.500824,87.616798 443.941559,87.552582 443.179626,87.281891 
z"/>
<path fill="#243559" opacity="1.000000" stroke="none" 
	d="
M438.182251,86.303963 
	C438.634003,86.095749 439.296936,86.083153 440.014099,86.339249 
	C439.510040,86.571823 438.951721,86.535706 438.182251,86.303963 
z"/>
<path fill="#C4CBDA" opacity="1.000000" stroke="none" 
	d="
M458.820923,78.974014 
	C458.511536,80.311073 458.202118,81.648125 457.589172,83.030396 
	C457.231964,82.669823 457.178223,82.264015 457.365234,81.373764 
	C458.010986,80.250877 458.415955,79.612442 458.820923,78.974014 
z"/>
<path fill="#243559" opacity="1.000000" stroke="none" 
	d="
M458.855530,78.633728 
	C458.415955,79.612442 458.010986,80.250877 457.365906,81.059128 
	C457.464203,79.855721 457.802643,78.482513 458.503296,77.029594 
	C458.873718,77.397736 458.881927,77.845596 458.855530,78.633728 
z"/>
<path fill="#C4CBDA" opacity="1.000000" stroke="none" 
	d="
M450.016693,66.144867 
	C450.691254,65.975632 451.359863,66.044846 452.059509,66.381393 
	C451.640778,66.716248 451.190979,66.783768 450.390808,66.855362 
	C450.040436,66.859428 450.010712,66.383316 450.016693,66.144867 
z"/>
<path fill="#243559" opacity="1.000000" stroke="none" 
	d="
M455.000305,68.443871 
	C455.530914,68.233353 456.097931,68.311462 456.855164,68.610733 
	C456.375824,68.798767 455.706299,68.765633 455.000305,68.443871 
z"/>
<path fill="#243559" opacity="1.000000" stroke="none" 
	d="
M460.289185,72.238281 
	C460.587311,72.237144 460.635681,72.665138 460.553802,72.864372 
	C460.435669,73.245178 460.399414,73.426743 460.167847,73.805771 
	C459.978699,73.415291 459.984894,72.827354 460.289185,72.238281 
z"/>
<path fill="#C4CBDA" opacity="1.000000" stroke="none" 
	d="
M459.591614,76.197037 
	C459.893890,76.260452 460.072144,76.419716 460.250427,76.578979 
	C460.123932,76.643990 459.997437,76.708984 459.669342,76.690132 
	C459.467743,76.606285 459.467651,76.292885 459.591614,76.197037 
z"/>
<path fill="#021846" opacity="1.000000" stroke="none" 
	d="
M487.617981,112.455978 
	C491.051788,113.065079 494.485626,113.674187 498.319305,114.383728 
	C499.298615,115.939835 500.691620,117.661659 500.317444,118.805382 
	C498.643036,123.923668 496.465088,128.877228 494.156128,134.131775 
	C489.541870,133.858673 485.240356,133.344086 480.507202,132.899109 
	C479.940918,131.916611 479.806274,130.864532 479.992004,129.185181 
	C481.156067,125.689865 481.999786,122.821808 482.843506,119.953751 
	C483.643738,117.915161 484.443939,115.876556 485.438721,113.582870 
	C485.633331,113.327774 486.085541,113.209480 486.371826,113.150497 
	C486.978058,112.879677 487.298035,112.667831 487.617981,112.455978 
z"/>
<path fill="#81899B" opacity="1.000000" stroke="none" 
	d="
M512.812744,115.760101 
	C513.615784,115.344574 514.529053,115.186394 515.864868,115.252686 
	C515.165955,115.657257 514.044495,115.837357 512.812744,115.760101 
z"/>
<path fill="#021846" opacity="1.000000" stroke="none" 
	d="
M489.687073,91.359955 
	C489.073730,95.520653 488.268982,99.432243 487.441650,103.339058 
	C487.078186,105.055580 486.668793,106.762375 486.532623,108.702118 
	C486.778931,109.102020 486.772827,109.273392 486.240662,109.663559 
	C484.965149,110.082581 484.215698,110.282806 483.140747,110.443359 
	C482.180939,110.372231 481.546661,110.340782 480.912415,110.309326 
	C479.052460,109.393227 477.192505,108.477127 474.889404,107.173950 
	C473.627380,106.200508 472.808441,105.614151 471.995392,104.599121 
	C471.975800,102.743462 471.950317,101.316475 471.924835,99.889481 
	C472.264191,98.821129 472.603516,97.752777 473.434509,96.293159 
	C474.924133,92.260864 475.922119,88.619835 476.920105,84.978806 
	C477.682983,84.383095 478.445923,83.787392 479.555939,83.184830 
	C481.236145,84.468575 482.569214,85.759163 484.043060,87.697067 
	C485.217773,88.838585 486.251709,89.332794 487.285645,89.826996 
	C488.019257,90.254303 488.752869,90.681610 489.687073,91.359955 
z"/>
<path fill="#C4CBDA" opacity="1.000000" stroke="none" 
	d="
M482.504089,120.005920 
	C481.999786,122.821808 481.156067,125.689865 480.013611,128.770630 
	C479.576935,127.861107 479.048584,126.602425 479.383026,125.645210 
	C480.063812,123.696732 481.210175,121.910927 482.504089,120.005920 
z"/>
<path fill="#384666" opacity="1.000000" stroke="none" 
	d="
M471.689026,100.163094 
	C471.950317,101.316475 471.975800,102.743462 471.666443,104.627747 
	C470.891571,105.411140 470.451538,105.737244 470.011505,106.063347 
	C470.011505,106.063347 469.635742,106.224747 469.442505,106.157806 
	C468.812073,105.341415 468.374847,104.591957 467.930298,103.494202 
	C469.099701,102.242851 470.276428,101.339775 471.689026,100.163094 
z"/>
<path fill="#C4CBDA" opacity="1.000000" stroke="none" 
	d="
M480.877472,110.673080 
	C481.546661,110.340782 482.180939,110.372231 483.400238,110.718811 
	C484.685394,111.759109 485.385468,112.484291 486.085541,113.209473 
	C486.085541,113.209480 485.633331,113.327774 485.432556,113.208191 
	C483.768707,112.404678 482.305603,111.720757 480.877472,110.673080 
z"/>
<path fill="#C4CBDA" opacity="1.000000" stroke="none" 
	d="
M470.250580,106.341599 
	C470.451538,105.737244 470.891571,105.411140 471.660583,105.056412 
	C472.808441,105.614151 473.627380,106.200508 474.568481,107.067429 
	C473.290344,107.105270 471.889984,106.862556 470.250580,106.341599 
z"/>
<path fill="#384666" opacity="1.000000" stroke="none" 
	d="
M467.395935,112.080444 
	C467.313263,111.404457 467.440735,110.751961 467.714661,110.621780 
	C467.891785,111.383415 467.922424,111.622719 467.953064,111.862030 
	C467.953064,111.862030 467.606079,112.103935 467.395935,112.080444 
z"/>
<path fill="#C4CBDA" opacity="1.000000" stroke="none" 
	d="
M465.410736,119.936844 
	C465.174286,119.225510 465.311066,118.437996 465.704041,117.476692 
	C465.901459,118.155487 465.842682,119.008072 465.410736,119.936844 
z"/>
<path fill="#C4CBDA" opacity="1.000000" stroke="none" 
	d="
M468.143341,112.043991 
	C467.922424,111.622719 467.891785,111.383415 467.931335,110.789185 
	C468.001587,110.434265 468.135010,110.366211 468.208435,110.353577 
	C468.299103,110.969284 468.316345,111.597618 468.143341,112.043991 
z"/>
<path fill="#384666" opacity="1.000000" stroke="none" 
	d="
M464.837982,99.723175 
	C462.885559,98.677010 460.925446,97.284203 458.935089,95.556702 
	C460.879974,96.606857 462.855133,97.991692 464.837982,99.723175 
z"/>
<path fill="#384666" opacity="1.000000" stroke="none" 
	d="
M476.671936,85.232925 
	C475.922119,88.619835 474.924133,92.260864 473.592468,95.995255 
	C474.313751,92.554756 475.368774,89.020905 476.671936,85.232925 
z"/>
<path fill="#384666" opacity="1.000000" stroke="none" 
	d="
M486.371826,113.150497 
	C485.385468,112.484291 484.685394,111.759109 483.725769,110.758484 
	C484.215698,110.282806 484.965149,110.082581 486.103516,109.881157 
	C486.794342,110.515778 487.096252,111.151588 487.508057,112.121689 
	C487.298035,112.667831 486.978058,112.879677 486.371826,113.150497 
z"/>
<path fill="#384666" opacity="1.000000" stroke="none" 
	d="
M487.190613,89.502777 
	C486.251709,89.332794 485.217773,88.838585 484.224243,87.949646 
	C485.208252,88.096123 486.151917,88.637344 487.190613,89.502777 
z"/>
<path fill="#384666" opacity="1.000000" stroke="none" 
	d="
M463.118042,122.322159 
	C462.642151,125.576538 461.441772,123.631912 460.173553,122.283035 
	C460.930817,122.053162 461.808228,122.141327 463.118042,122.322159 
z"/>
</svg>