<svg version="1.1" id="Layer_1" xmlns="http://www.w3.org/2000/svg" xmlns:xlink="http://www.w3.org/1999/xlink" x="0px" y="0px"
	 width="100%" viewBox="0 0 4500 4500" enable-background="new 0 0 4500 4500" xml:space="preserve">
<path fill="#FEFEFF" opacity="1.000000" stroke="none" 
	d="
M2444.000000,4504.000000 
	C1629.423340,4504.000000 816.846741,4504.000000 4.135072,4504.000000 
	C4.135072,3004.256348 4.135072,1504.512573 4.135072,4.384383 
	C1503.577393,4.384383 3003.154785,4.384383 4503.366211,4.384383 
	C4503.366211,1503.999756 4503.366211,3003.999756 4503.366211,4504.000000 
	C3817.843994,4504.000000 3131.922119,4504.000000 2444.000000,4504.000000 
M933.979431,1891.029785 
	C907.994080,1891.239624 882.007874,1891.385498 856.024170,1891.721069 
	C851.571228,1891.778687 847.128662,1892.646240 842.326233,1893.179077 
	C634.799072,2513.132080 427.563354,3132.213867 220.363525,3751.307617 
	C220.176208,3751.867188 220.486542,3752.618164 220.641312,3753.260986 
	C220.785645,3753.860840 221.032623,3754.436035 221.461639,3755.681641 
	C937.718994,3755.681641 1654.203613,3755.681641 2370.837891,3755.681641 
	C2372.424561,3752.281250 2374.165771,3749.403809 2375.164551,3746.288574 
	C2472.278320,3443.356445 2569.336914,3140.406982 2666.329590,2837.436279 
	C2666.689941,2836.309814 2666.041016,2834.860107 2665.694092,2832.324463 
	C2634.614014,2832.324463 2603.350342,2832.324463 2572.086426,2832.324463 
	C2541.422119,2832.324463 2510.757812,2832.324463 2480.093506,2832.324463 
	C2448.762695,2832.324463 2417.431641,2832.324463 2386.100830,2832.324463 
	C2354.770020,2832.324463 2323.438965,2832.324463 2292.108154,2832.324463 
	C2261.443848,2832.324463 2230.779541,2832.324463 2200.115234,2832.324463 
	C2168.784424,2832.324463 2137.453369,2832.324463 2106.122559,2832.324463 
	C2075.458252,2832.324463 2044.794067,2832.324463 2014.129761,2832.324463 
	C1982.798828,2832.324463 1951.467896,2832.324463 1920.136963,2832.324463 
	C1888.806030,2832.324463 1857.475220,2832.324463 1826.144287,2832.324463 
	C1795.479980,2832.324463 1764.815796,2832.333008 1734.151489,2832.322021 
	C1702.942383,2832.311035 1671.733398,2832.281006 1638.818604,2832.258057 
	C1641.058716,2824.144531 1642.531860,2817.773438 1644.568604,2811.587646 
	C1672.245605,2727.532959 1699.989136,2643.500488 1727.738770,2559.469482 
	C1775.324829,2415.369873 1822.921021,2271.273926 1870.523804,2127.179688 
	C1894.539429,2054.484131 1918.600708,1981.803955 1942.562378,1909.090820 
	C1944.339722,1903.697510 1945.477905,1898.093506 1947.370850,1890.831055 
	C1609.744751,1890.831055 1273.861206,1890.831055 933.979431,1891.029785 
M3278.000000,1828.324829 
	C3206.690430,1828.183838 3135.380615,1828.044556 3064.071045,1827.875977 
	C3063.438477,1827.874390 3062.724609,1827.597046 3062.200195,1827.231079 
	C3061.756104,1826.921021 3061.532715,1826.295166 3060.302734,1824.433350 
	C3080.071289,1762.789551 3100.149414,1700.152710 3120.245850,1637.521484 
	C3140.169678,1575.428589 3160.126221,1513.346069 3180.041504,1451.250488 
	C3200.159912,1388.521851 3220.227539,1325.776978 3240.350342,1263.049805 
	C3260.270508,1200.954102 3280.372559,1138.916382 3300.134521,1076.770508 
	C3320.047852,1014.148987 3340.761963,951.773926 3360.536621,887.143494 
	C3350.794678,887.012878 3342.887207,886.814392 3334.979736,886.814026 
	C3015.040527,886.798462 2695.101562,886.800842 2375.162354,886.800903 
	C2371.163086,886.800903 2367.146484,886.568481 2363.169189,886.864136 
	C2358.684814,887.197571 2354.235840,888.006714 2350.020752,888.575317 
	C2310.290771,1012.534180 2270.911377,1135.456665 2231.493896,1258.366943 
	C2195.729004,1369.886597 2159.930420,1481.395630 2124.133057,1592.904785 
	C2088.741943,1703.148071 2053.302490,1813.375854 2017.941284,1923.628784 
	C1985.219360,2025.651978 1952.598022,2127.707275 1919.886719,2229.733887 
	C1884.741943,2339.350830 1849.544312,2448.950195 1814.369263,2558.557373 
	C1795.457642,2617.486816 1776.474976,2676.393555 1757.753296,2735.383301 
	C1756.087158,2740.633057 1752.038818,2745.957764 1755.902588,2753.199219 
	C1764.334229,2753.199219 1772.946777,2753.199219 1781.559326,2753.199219 
	C2462.096436,2753.199219 3142.633789,2753.199463 3823.170898,2753.199219 
	C3827.836670,2753.199219 3832.520508,2753.451904 3837.163086,2753.123779 
	C3841.624512,2752.808105 3846.042969,2751.890137 3850.281006,2751.266357 
	C3948.427002,2444.745361 4046.228760,2139.303223 4143.953613,1833.836548 
	C4144.305176,1832.738037 4143.537109,1831.281250 4142.974609,1828.325195 
	C3856.195557,1828.324707 3569.097656,1828.325073 3278.000000,1828.324829 
M3418.680664,1558.795776 
	C3428.509521,1560.545044 3438.423096,1561.916382 3448.153320,1564.104370 
	C3515.873047,1579.331543 3576.356934,1609.209351 3626.424072,1657.435425 
	C3679.338379,1708.404785 3741.764404,1739.992432 3812.788818,1756.077881 
	C3863.054932,1767.461914 3914.150879,1771.208862 3965.460205,1771.493164 
	C4000.716309,1771.688599 4035.983398,1769.719849 4071.247070,1768.770386 
	C4098.553223,1768.035156 4125.862793,1767.353638 4152.956055,1772.023071 
	C4158.029297,1772.897461 4163.102539,1773.771118 4167.701172,1774.563232 
	C4169.111816,1772.639893 4170.237793,1771.689575 4170.618652,1770.500610 
	C4239.971680,1553.811401 4309.273438,1337.105591 4378.561523,1120.395630 
	C4378.761230,1119.770386 4378.985352,1118.993164 4378.779297,1118.443848 
	C4378.582031,1117.917969 4377.838379,1117.596924 4376.297852,1116.338989 
	C4374.019531,1116.815552 4370.893066,1117.367065 4367.817383,1118.127930 
	C4298.423828,1135.296265 4228.360840,1146.225098 4156.504883,1145.418579 
	C4095.901611,1144.738403 4042.660156,1126.277466 3997.640869,1085.720215 
	C3982.344482,1071.939819 3968.104980,1056.863037 3954.386230,1041.483398 
	C3933.552002,1018.126648 3913.926270,993.694214 3893.167480,970.267456 
	C3873.650391,948.241394 3851.435791,929.172119 3826.546387,913.293640 
	C3778.145264,882.416016 3724.345215,868.753296 3667.906494,864.387573 
	C3606.534424,859.640137 3545.474121,864.252014 3484.697021,873.088013 
	C3468.988037,875.371887 3453.402832,878.507080 3437.817383,881.241272 
	C3362.600098,1111.089722 3287.716797,1339.915527 3212.889404,1568.759644 
	C3212.776123,1569.105713 3213.493896,1569.723511 3214.589111,1571.355713 
	C3280.182617,1553.251831 3347.280518,1548.450317 3418.680664,1558.795776 
M1894.310669,911.939636 
	C1888.768921,929.022034 1883.213257,946.099915 1877.687622,963.187561 
	C1850.660400,1046.766357 1823.634644,1130.345825 1796.620605,1213.928955 
	C1762.447510,1319.662231 1728.301636,1425.404175 1694.114502,1531.132812 
	C1665.862061,1618.507324 1637.551758,1705.863281 1609.345581,1793.252808 
	C1608.183105,1796.854492 1607.819580,1800.714111 1606.688477,1806.463867 
	C1632.691162,1807.132446 1657.131592,1806.736206 1681.555176,1806.804321 
	C1706.215576,1806.873291 1730.876099,1806.819580 1755.536621,1806.819580 
	C1779.530640,1806.819580 1803.524536,1806.819580 1827.518555,1806.819580 
	C1852.179077,1806.819580 1876.841064,1806.992798 1901.499512,1806.770630 
	C1926.001465,1806.549805 1950.543701,1807.775146 1975.211548,1806.021851 
	C1976.823242,1802.276245 1978.385742,1799.337646 1979.386108,1796.218872 
	C2010.072266,1700.549805 2040.709717,1604.865234 2071.341309,1509.178833 
	C2113.535889,1377.372070 2155.702637,1245.556396 2197.914062,1113.755005 
	C2220.646240,1042.775879 2243.456543,971.821899 2266.191895,900.843872 
	C2267.538574,896.639465 2270.059570,892.354431 2266.443115,887.672546 
	C2264.591309,887.392822 2262.659180,886.846130 2260.727051,886.845337 
	C2144.756104,886.800476 2028.785278,886.779846 1912.814575,886.888550 
	C1909.044312,886.892090 1905.275269,888.258972 1901.859985,888.921631 
	C1899.483887,896.194275 1897.417114,902.520264 1894.310669,911.939636 
M3087.146973,2860.586182 
	C3089.086670,2853.002930 3091.026367,2845.419678 3093.144287,2837.139648 
	C3088.274170,2836.791260 3084.984619,2836.351318 3081.694824,2836.350098 
	C2967.030518,2836.314453 2852.365967,2836.305176 2737.701660,2836.383057 
	C2733.862793,2836.385742 2730.024170,2837.323730 2725.837402,2837.871338 
	C2627.697266,3141.855225 2529.758301,3445.205811 2431.896240,3748.581543 
	C2431.322021,3750.361816 2431.825195,3752.489502 2431.825195,3756.350342 
	C2554.289307,3756.349365 2676.648682,3756.351318 2799.226562,3756.349121 
	C2801.671875,3749.502197 2803.836914,3743.939209 2805.658447,3738.265869 
	C2844.928955,3615.959473 2884.196289,3493.651855 2923.392822,3371.321533 
	C2977.614502,3202.098633 3031.777832,3032.856689 3087.146973,2860.586182 
M1576.437256,1666.763062 
	C1597.205688,1602.131836 1618.020752,1537.515381 1638.729248,1472.864990 
	C1659.435059,1408.222900 1679.989136,1343.532227 1700.692505,1278.889282 
	C1721.604736,1213.593994 1742.786621,1148.384644 1763.540649,1083.039185 
	C1784.045044,1018.480042 1805.310669,954.153992 1825.971924,886.799011 
	C1757.388794,886.761658 1691.005249,886.787292 1624.698364,886.776855 
	C1622.933838,890.089172 1621.321655,892.271667 1620.531128,894.719482 
	C1522.961182,1196.801636 1425.449829,1498.902832 1328.018433,1801.029663 
	C1327.681274,1802.075195 1328.545776,1803.508301 1328.960327,1805.220581 
	C1330.533813,1805.682129 1332.329834,1806.667603 1334.127319,1806.669800 
	C1399.422363,1806.748657 1464.717651,1806.736084 1530.987427,1806.736084 
	C1547.139648,1761.146606 1560.397827,1715.154907 1576.437256,1666.763062 
M3119.489014,3637.735596 
	C3203.386719,3375.979004 3287.285889,3114.223145 3371.165283,2852.460693 
	C3372.384766,2848.655273 3373.387207,2844.777832 3374.397949,2840.909912 
	C3374.548828,2840.332275 3374.244629,2839.599854 3374.039307,2838.976074 
	C3373.853516,2838.411865 3373.515137,2837.898193 3373.052246,2836.983887 
	C3306.686768,2836.983887 3240.131104,2836.983887 3173.833740,2836.983887 
	C3165.283447,2859.524658 2879.294678,3740.380127 2877.572266,3756.357910 
	C2900.303955,3756.357910 2922.916992,3756.357910 2945.530029,3756.357910 
	C2968.196533,3756.357910 2990.865479,3756.553955 3013.529053,3756.302734 
	C3036.041992,3756.053223 3058.612793,3757.454834 3081.578125,3755.315186 
	C3094.083740,3716.660645 3106.355225,3678.730957 3119.489014,3637.735596 
M1174.115967,1806.840698 
	C1201.331299,1806.840698 1228.546753,1806.840698 1253.827271,1806.840698 
	C1256.259033,1804.938232 1256.971313,1804.635010 1257.269897,1804.100586 
	C1258.233154,1802.377441 1259.283081,1800.645508 1259.879883,1798.782593 
	C1356.682495,1496.551025 1453.448608,1194.307983 1550.187134,892.055969 
	C1550.376343,891.464783 1550.215210,890.715515 1550.065552,890.075684 
	C1549.934570,889.515442 1549.588989,889.005371 1548.668091,887.051575 
	C1535.490112,886.960144 1521.593140,886.824036 1507.695801,886.778137 
	C1493.034912,886.729675 1478.365112,886.451538 1463.715454,886.858887 
	C1449.961304,887.241333 1435.986816,884.856934 1422.020142,888.788818 
	C1323.860840,1193.270752 1225.885986,1497.173828 1127.995605,1801.104126 
	C1127.660767,1802.144043 1128.549438,1803.578125 1128.867310,1804.831177 
	C1129.977661,1805.417114 1131.080078,1806.495605 1132.199707,1806.513672 
	C1144.853638,1806.716553 1157.510132,1806.756714 1174.115967,1806.840698 
M3208.499268,3570.266602 
	C3201.905762,3590.517334 3195.295410,3610.762695 3188.722900,3631.020508 
	C3181.944580,3651.911621 3174.711670,3672.671875 3168.586914,3693.753662 
	C3162.689941,3714.051514 3153.859131,3733.542480 3150.511719,3754.687012 
	C3165.988281,3756.739014 3257.151123,3757.128662 3279.837158,3755.264404 
	C3281.504883,3750.707520 3283.497314,3745.817383 3285.101074,3740.802734 
	C3380.993896,3440.979492 3476.857178,3141.146484 3572.635986,2841.286865 
	C3572.977539,2840.217529 3572.069092,2838.749023 3571.735352,2837.469238 
	C3549.852051,2835.377441 3460.617920,2835.863770 3445.359375,2838.299805 
	C3440.810791,2852.414307 3436.155029,2866.945312 3431.446045,2881.458740 
	C3397.350098,2986.548340 3363.191162,3091.617432 3329.153809,3196.725830 
	C3289.168945,3320.199707 3249.287354,3443.707031 3208.499268,3570.266602 
M1349.082275,886.753662 
	C1325.139526,886.753662 1301.196777,886.753662 1277.089111,886.753662 
	C1275.101562,891.294189 1273.216187,894.776001 1272.010620,898.479248 
	C1253.469727,955.434204 1234.949219,1012.396118 1216.557983,1069.399658 
	C1178.757324,1186.562012 1141.110107,1303.774170 1103.263062,1420.921631 
	C1062.961914,1545.665283 1022.486755,1670.352539 982.196411,1795.099609 
	C981.104309,1798.480957 981.262451,1802.266235 980.792114,1806.247925 
	C1011.424011,1806.247925 1040.671997,1806.247925 1071.250732,1806.247925 
	C1168.643066,1501.238525 1267.074707,1196.740479 1363.728394,891.671143 
	C1364.020508,890.749023 1362.951050,889.395508 1362.207642,887.420044 
	C1359.321045,887.215942 1356.072754,886.986267 1349.082275,886.753662 
M3392.695557,3602.817871 
	C3377.262207,3653.613281 3359.319580,3703.632324 3344.126465,3755.670410 
	C3375.408691,3755.670410 3405.206543,3755.670410 3436.217041,3755.670410 
	C3533.458008,3452.036621 3630.616943,3148.673096 3727.687744,2845.281250 
	C3728.452393,2842.891602 3728.020752,2840.119141 3728.178467,2836.890625 
	C3699.036865,2836.890625 3670.497559,2836.890625 3641.459229,2836.890625 
	C3639.686035,2841.398193 3637.779785,2845.590088 3636.367188,2849.942871 
	C3627.950195,2875.875488 3619.706787,2901.864746 3611.295654,2927.799561 
	C3577.234131,3032.827148 3543.060547,3137.818604 3509.065918,3242.867676 
	C3470.568848,3361.827881 3432.219238,3480.835938 3392.695557,3602.817871 
M980.504333,1606.822266 
	C1054.382202,1376.342773 1128.261108,1145.863525 1202.132690,915.381958 
	C1204.161377,909.052490 1206.125977,902.702454 1208.085938,896.351318 
	C1208.477905,895.081421 1208.714844,893.763550 1209.016235,892.466064 
	C1209.166870,891.817383 1209.485962,891.135559 1209.388672,890.522766 
	C1209.299194,889.959412 1208.753784,889.468445 1207.545410,887.634705 
	C1201.600464,885.542297 1194.250366,886.765503 1187.136108,886.795776 
	C1179.983398,886.826233 1172.588867,885.369019 1164.627563,888.640015 
	C1066.586792,1192.149780 968.490540,1495.821899 870.468201,1799.517822 
	C869.916321,1801.227661 870.399841,1803.271729 870.399841,1805.356934 
	C877.579651,1808.271362 884.955261,1806.623291 892.140686,1806.805908 
	C899.952820,1807.004395 907.783142,1806.488647 916.308228,1806.265869 
	C919.155945,1797.770630 921.748352,1790.298218 924.170227,1782.770996 
	C942.708679,1725.154419 961.213928,1667.527222 980.504333,1606.822266 
M3630.824951,3316.297607 
	C3574.294922,3485.638672 3493.188965,3739.741943 3490.711670,3755.584473 
	C3505.918457,3755.584473 3521.025391,3755.584473 3536.846680,3755.584473 
	C3540.231689,3745.716064 3543.614014,3736.403564 3546.632568,3726.974854 
	C3597.141357,3569.190186 3647.561279,3411.376953 3698.090820,3253.598877 
	C3740.710693,3120.519531 3783.459961,2987.481934 3826.075684,2854.401123 
	C3827.825439,2848.937012 3828.803955,2843.226074 3830.364746,2836.697998 
	C3814.508057,2836.566650 3800.028809,2834.667236 3785.312988,2837.960205 
	C3734.018311,2996.697754 3682.872070,3154.976562 3630.824951,3316.297607 
z"/>
<path fill="#011746" opacity="1.000000" stroke="none" 
	d="
M935.978577,1890.930420 
	C1273.861206,1890.831055 1609.744751,1890.831055 1947.370850,1890.831055 
	C1945.477905,1898.093506 1944.339722,1903.697510 1942.562378,1909.090820 
	C1918.600708,1981.803955 1894.539429,2054.484131 1870.523804,2127.179688 
	C1822.921021,2271.273926 1775.324829,2415.369873 1727.738770,2559.469482 
	C1699.989136,2643.500488 1672.245605,2727.532959 1644.568604,2811.587646 
	C1642.531860,2817.773438 1641.058716,2824.144531 1638.818604,2832.258057 
	C1671.733398,2832.281006 1702.942383,2832.311035 1734.151489,2832.322021 
	C1764.815796,2832.333008 1795.479980,2832.324463 1826.144287,2832.324463 
	C1857.475220,2832.324463 1888.806030,2832.324463 1920.136963,2832.324463 
	C1951.467896,2832.324463 1982.798828,2832.324463 2014.129761,2832.324463 
	C2044.794067,2832.324463 2075.458252,2832.324463 2106.122559,2832.324463 
	C2137.453369,2832.324463 2168.784424,2832.324463 2200.115234,2832.324463 
	C2230.779541,2832.324463 2261.443848,2832.324463 2292.108154,2832.324463 
	C2323.438965,2832.324463 2354.770020,2832.324463 2386.100830,2832.324463 
	C2417.431641,2832.324463 2448.762695,2832.324463 2480.093506,2832.324463 
	C2510.757812,2832.324463 2541.422119,2832.324463 2572.086426,2832.324463 
	C2603.350342,2832.324463 2634.614014,2832.324463 2665.694092,2832.324463 
	C2666.041016,2834.860107 2666.689941,2836.309814 2666.329590,2837.436279 
	C2569.336914,3140.406982 2472.278320,3443.356445 2375.164551,3746.288574 
	C2374.165771,3749.403809 2372.424561,3752.281250 2370.837891,3755.681641 
	C1654.203613,3755.681641 937.718994,3755.681641 221.461639,3755.681641 
	C221.032623,3754.436035 220.785645,3753.860840 220.641312,3753.260986 
	C220.486542,3752.618164 220.176208,3751.867188 220.363525,3751.307617 
	C427.563354,3132.213867 634.799072,2513.132080 842.326233,1893.179077 
	C847.128662,1892.646240 851.571228,1891.778687 856.024170,1891.721069 
	C882.007874,1891.385498 907.994080,1891.239624 935.978577,1890.930420 
z"/>
<path fill="#011746" opacity="1.000000" stroke="none" 
	d="
M3280.000000,1828.324951 
	C3569.097656,1828.325073 3856.195557,1828.324707 4142.974609,1828.325195 
	C4143.537109,1831.281250 4144.305176,1832.738037 4143.953613,1833.836548 
	C4046.228760,2139.303223 3948.427002,2444.745361 3850.281006,2751.266357 
	C3846.042969,2751.890137 3841.624512,2752.808105 3837.163086,2753.123779 
	C3832.520508,2753.451904 3827.836670,2753.199219 3823.170898,2753.199219 
	C3142.633789,2753.199463 2462.096436,2753.199219 1781.559326,2753.199219 
	C1772.946777,2753.199219 1764.334229,2753.199219 1755.902588,2753.199219 
	C1752.038818,2745.957764 1756.087158,2740.633057 1757.753296,2735.383301 
	C1776.474976,2676.393555 1795.457642,2617.486816 1814.369263,2558.557373 
	C1849.544312,2448.950195 1884.741943,2339.350830 1919.886719,2229.733887 
	C1952.598022,2127.707275 1985.219360,2025.651978 2017.941284,1923.628784 
	C2053.302490,1813.375854 2088.741943,1703.148071 2124.133057,1592.904785 
	C2159.930420,1481.395630 2195.729004,1369.886597 2231.493896,1258.366943 
	C2270.911377,1135.456665 2310.290771,1012.534180 2350.020752,888.575317 
	C2354.235840,888.006714 2358.684814,887.197571 2363.169189,886.864136 
	C2367.146484,886.568481 2371.163086,886.800903 2375.162354,886.800903 
	C2695.101562,886.800842 3015.040527,886.798462 3334.979736,886.814026 
	C3342.887207,886.814392 3350.794678,887.012878 3360.536621,887.143494 
	C3340.761963,951.773926 3320.047852,1014.148987 3300.134521,1076.770508 
	C3280.372559,1138.916382 3260.270508,1200.954102 3240.350342,1263.049805 
	C3220.227539,1325.776978 3200.159912,1388.521851 3180.041504,1451.250488 
	C3160.126221,1513.346069 3140.169678,1575.428589 3120.245850,1637.521484 
	C3100.149414,1700.152710 3080.071289,1762.789551 3060.302734,1824.433350 
	C3061.532715,1826.295166 3061.756104,1826.921021 3062.200195,1827.231079 
	C3062.724609,1827.597046 3063.438477,1827.874390 3064.071045,1827.875977 
	C3135.380615,1828.044556 3206.690430,1828.183838 3280.000000,1828.324951 
z"/>
<path fill="#061B49" opacity="1.000000" stroke="none" 
	d="
M3416.964844,1558.388428 
	C3347.280518,1548.450317 3280.182617,1553.251831 3214.589111,1571.355713 
	C3213.493896,1569.723511 3212.776123,1569.105713 3212.889404,1568.759644 
	C3287.716797,1339.915527 3362.600098,1111.089722 3437.817383,881.241272 
	C3453.402832,878.507080 3468.988037,875.371887 3484.697021,873.088013 
	C3545.474121,864.252014 3606.534424,859.640137 3667.906494,864.387573 
	C3724.345215,868.753296 3778.145264,882.416016 3826.546387,913.293640 
	C3851.435791,929.172119 3873.650391,948.241394 3893.167480,970.267456 
	C3913.926270,993.694214 3933.552002,1018.126648 3954.386230,1041.483398 
	C3968.104980,1056.863037 3982.344482,1071.939819 3997.640869,1085.720215 
	C4042.660156,1126.277466 4095.901611,1144.738403 4156.504883,1145.418579 
	C4228.360840,1146.225098 4298.423828,1135.296265 4367.817383,1118.127930 
	C4370.893066,1117.367065 4374.019531,1116.815552 4376.297852,1116.338989 
	C4377.838379,1117.596924 4378.582031,1117.917969 4378.779297,1118.443848 
	C4378.985352,1118.993164 4378.761230,1119.770386 4378.561523,1120.395630 
	C4309.273438,1337.105591 4239.971680,1553.811401 4170.618652,1770.500610 
	C4170.237793,1771.689575 4169.111816,1772.639893 4167.701172,1774.563232 
	C4163.102539,1773.771118 4158.029297,1772.897461 4152.956055,1772.023071 
	C4125.862793,1767.353638 4098.553223,1768.035156 4071.247070,1768.770386 
	C4035.983398,1769.719849 4000.716309,1771.688599 3965.460205,1771.493164 
	C3914.150879,1771.208862 3863.054932,1767.461914 3812.788818,1756.077881 
	C3741.764404,1739.992432 3679.338379,1708.404785 3626.424072,1657.435425 
	C3576.356934,1609.209351 3515.873047,1579.331543 3448.153320,1564.104370 
	C3438.423096,1561.916382 3428.509521,1560.545044 3416.964844,1558.388428 
M3508.483643,1224.337524 
	C3508.483643,1224.337524 3508.981689,1224.341309 3506.403076,1225.681641 
	C3505.822510,1229.388672 3505.241943,1233.095825 3504.483643,1236.337524 
	C3504.483643,1236.337524 3504.981689,1236.341309 3502.403076,1237.681641 
	C3501.822510,1241.388672 3501.241943,1245.095825 3500.483643,1248.337524 
	C3500.483643,1248.337524 3500.981689,1248.341309 3498.403076,1249.681641 
	C3497.822510,1253.388672 3497.241943,1257.095825 3496.442627,1260.333862 
	C3496.442627,1260.333862 3496.957275,1260.280762 3494.372803,1261.629639 
	C3493.783203,1265.350952 3493.193604,1269.072266 3492.429688,1272.295288 
	C3492.429688,1272.295288 3492.957275,1272.280762 3490.372559,1273.629761 
	C3489.782959,1277.351074 3489.193359,1281.072388 3488.433594,1284.294678 
	C3488.433594,1284.294678 3488.960938,1284.285522 3486.311768,1285.516357 
	C3484.055908,1290.263428 3481.354736,1294.854370 3479.625732,1299.786133 
	C3474.131592,1315.458252 3468.906250,1331.226929 3463.770020,1347.020996 
	C3461.356445,1354.441528 3457.915527,1360.487549 3445.800537,1361.900757 
	C3390.255859,1359.116821 3316.443115,1359.626343 3292.623291,1368.149048 
	C3274.168457,1423.845581 3255.552002,1479.968140 3237.012939,1536.116089 
	C3235.766113,1539.892334 3235.092529,1543.858521 3234.172119,1547.741089 
	C3234.019531,1548.386475 3233.722900,1549.163818 3233.947998,1549.682617 
	C3234.148193,1550.143555 3234.979980,1550.330322 3236.925049,1551.412109 
	C3287.364990,1541.331787 3339.454346,1536.633911 3392.786621,1544.141846 
	C3394.630371,1547.115967 3397.453857,1547.275513 3399.010986,1544.701172 
	C3401.377441,1540.787964 3403.003174,1536.354980 3404.477051,1531.985352 
	C3415.084473,1500.539917 3425.583984,1469.058228 3436.098145,1437.581299 
	C3442.827393,1417.435669 3449.600098,1397.304199 3456.190430,1377.113281 
	C3458.599854,1369.731445 3461.863037,1363.551636 3473.914551,1362.595825 
	C3483.088867,1364.022339 3492.362305,1364.990112 3501.420166,1366.954590 
	C3541.331787,1375.610352 3578.497559,1391.559326 3614.607422,1410.220581 
	C3620.343506,1413.185059 3625.767822,1416.897461 3632.007324,1418.475220 
	C3640.431152,1401.685791 3688.775146,1258.154663 3691.421631,1241.909180 
	C3684.290771,1237.923584 3677.093262,1233.098999 3669.283447,1229.667358 
	C3621.855469,1208.827759 3571.761475,1199.779541 3520.111572,1193.445923 
	C3521.558105,1186.348389 3522.273926,1179.002930 3524.582764,1172.197754 
	C3532.898193,1147.687866 3541.709717,1123.345459 3550.415771,1098.968994 
	C3555.772217,1083.971558 3561.306641,1069.037842 3566.697754,1054.052734 
	C3568.269775,1049.682739 3569.769531,1045.275635 3571.037354,1040.810425 
	C3572.314453,1036.312256 3570.933105,1034.875000 3559.944824,1032.281616 
	C3533.401855,1033.929688 3506.764893,1034.686035 3480.342041,1037.474121 
	C3453.395264,1040.317627 3426.031250,1038.797241 3399.818604,1044.299805 
	C3388.464355,1071.985229 3353.832520,1179.947876 3351.949707,1193.952637 
	C3405.132080,1190.314209 3458.132568,1190.949463 3511.652100,1197.791870 
	C3511.985107,1202.800903 3512.318115,1207.809937 3512.471680,1212.341431 
	C3512.471680,1212.341431 3512.981689,1212.341309 3510.403076,1213.681641 
	C3509.822510,1217.388672 3509.241943,1221.095825 3508.483643,1224.337524 
M3774.188232,1524.864868 
	C3807.117920,1552.255249 3863.724121,1577.411255 3903.425781,1582.298706 
	C3910.289307,1569.119995 3958.398193,1434.685547 3963.829346,1413.293335 
	C3941.824219,1404.587769 3919.231445,1396.879150 3897.745605,1386.808838 
	C3875.625977,1376.441528 3854.585449,1363.771973 3832.462402,1351.778931 
	C3827.128174,1356.870728 3826.465576,1364.474121 3824.173096,1371.166260 
	C3806.736572,1422.063477 3789.513184,1473.033691 3770.120117,1524.916748 
	C3769.377197,1524.727051 3768.634033,1524.537354 3767.186035,1521.713501 
	C3722.148926,1479.700317 3659.663330,1434.225220 3633.384277,1424.585693 
	C3614.491455,1483.280640 3595.608398,1541.945190 3576.840088,1600.252563 
	C3579.406738,1602.596924 3580.706787,1604.142090 3582.323242,1605.207153 
	C3606.296631,1621.006226 3627.608154,1639.998291 3649.052979,1658.997803 
	C3664.909180,1673.046265 3682.826172,1684.788208 3700.027344,1697.279419 
	C3702.947510,1699.400024 3706.888184,1700.115234 3710.811035,1701.658203 
	C3712.778809,1696.275757 3714.456787,1691.945923 3715.952637,1687.554321 
	C3728.806152,1649.810303 3741.771973,1612.103638 3754.387207,1574.279907 
	C3759.415039,1559.205444 3763.646240,1543.865112 3769.799316,1527.226562 
	C3770.464600,1525.987549 3771.130127,1524.748413 3774.188232,1524.864868 
M3583.675537,1027.409668 
	C3605.416992,1023.160461 3627.116455,1023.774963 3649.035889,1026.634644 
	C3682.858398,1031.047241 3715.142578,1040.714478 3746.828613,1052.866577 
	C3750.961670,1054.451782 3755.247070,1055.640015 3759.253906,1056.944580 
	C3768.082275,1039.590210 3804.998291,934.095032 3807.572998,919.413147 
	C3807.194580,918.872314 3806.929199,918.161987 3806.417725,917.819946 
	C3804.236328,916.361633 3802.059570,914.865295 3799.742676,913.645020 
	C3765.269287,895.488586 3728.371582,885.053589 3689.892578,880.330383 
	C3669.552734,877.833679 3649.162842,874.168762 3628.139648,874.727173 
	C3626.957520,873.824402 3625.775146,872.921570 3624.593018,872.018799 
	C3622.998779,875.590881 3621.154297,879.074219 3619.850342,882.749207 
	C3610.605469,908.803040 3601.351562,934.854797 3592.342285,960.990662 
	C3585.689941,980.289246 3579.334717,999.691650 3573.005859,1019.099548 
	C3571.544189,1023.582031 3572.961426,1024.979492 3583.675537,1027.409668 
M3894.959961,1159.467041 
	C3901.930420,1159.048096 3905.047607,1164.955322 3909.331055,1168.606812 
	C3941.783203,1196.270386 3974.662842,1223.357666 4010.734131,1246.280640 
	C4013.950195,1248.324341 4017.551270,1249.762207 4021.058105,1251.524048 
	C4040.769287,1202.431030 4057.131104,1154.789307 4058.779541,1141.758545 
	C4047.245605,1135.371094 4035.403564,1129.354126 4024.104492,1122.448242 
	C3996.576416,1105.623779 3973.572998,1083.503540 3951.931152,1059.812866 
	C3947.269287,1054.709839 3943.670166,1048.258423 3935.826172,1044.185913 
	C3931.470215,1056.564575 3927.492432,1067.755249 3923.593262,1078.973267 
	C3915.733154,1101.584351 3907.971924,1124.230103 3900.030029,1146.812256 
	C3898.582764,1150.927002 3898.309814,1156.383667 3891.162598,1153.780762 
	C3852.918701,1115.705933 3791.817383,1072.693115 3760.601074,1062.289185 
	C3738.749268,1122.023682 3716.886230,1181.789307 3695.279785,1240.853394 
	C3697.267334,1243.005737 3697.974609,1244.247925 3699.043213,1244.859741 
	C3736.806641,1266.486816 3770.972900,1292.765381 3802.136719,1323.149780 
	C3810.490479,1331.294800 3819.085205,1339.714478 3831.111084,1345.078735 
	C3833.458984,1338.656250 3835.603271,1333.126221 3837.512207,1327.516113 
	C3854.002686,1279.047241 3870.510254,1230.583984 3886.843506,1182.062012 
	C3889.155273,1175.194214 3890.554199,1168.019165 3894.959961,1159.467041 
M4217.868164,1443.682251 
	C4181.375000,1442.755005 4144.881836,1441.827759 4108.269531,1440.897339 
	C4107.521973,1441.750854 4106.255371,1442.599487 4105.845703,1443.752930 
	C4088.257324,1493.237915 4070.743896,1542.749390 4053.240967,1592.264648 
	C4053.024170,1592.877563 4052.865234,1593.640625 4053.041016,1594.224976 
	C4053.208740,1594.783813 4053.848633,1595.200684 4055.134766,1596.626099 
	C4057.278320,1597.135376 4060.429932,1598.459717 4063.618652,1598.555298 
	C4112.811523,1600.031860 4161.939941,1598.920166 4212.553223,1594.851562 
	C4228.589844,1545.157349 4244.788574,1495.421997 4260.834473,1443.682129 
	C4246.644531,1443.682129 4234.221680,1443.682129 4217.868164,1443.682251 
M3957.765625,1757.177490 
	C3969.580078,1756.709229 3981.520996,1758.279297 3993.696045,1756.031372 
	C4010.723145,1707.754761 4027.512451,1660.250732 4044.141602,1612.690796 
	C4044.910156,1610.493042 4044.240234,1607.792480 4044.240234,1605.335449 
	C4020.484131,1602.905273 3997.306641,1601.072632 3974.289551,1598.027832 
	C3951.430420,1595.003906 3928.732910,1590.760376 3904.999512,1586.894531 
	C3885.854980,1640.849854 3867.080811,1693.761108 3848.317139,1746.643311 
	C3866.647949,1753.610840 3903.405518,1757.156250 3957.765625,1757.177490 
M4327.304688,1141.010010 
	C4287.829590,1149.974243 4247.730957,1154.837402 4208.477539,1158.042480 
	C4206.727051,1160.250610 4205.557617,1161.157837 4205.142090,1162.332153 
	C4189.647949,1206.130493 4174.198730,1249.945068 4158.861328,1293.798340 
	C4158.099121,1295.976929 4158.388672,1298.523315 4158.202637,1300.732544 
	C4189.513184,1307.814941 4259.760254,1304.616699 4308.941895,1293.943237 
	C4325.464355,1242.352539 4342.219238,1190.035767 4359.089355,1137.359131 
	C4348.284668,1134.010010 4339.842773,1140.387207 4327.304688,1141.010010 
M3985.519287,1359.516724 
	C3979.646240,1376.313354 3973.772949,1393.110107 3967.934326,1409.807983 
	C3997.914062,1423.245728 4082.759033,1438.563599 4106.522949,1435.088989 
	C4124.704102,1391.341919 4149.619629,1317.810425 4150.908691,1304.195312 
	C4129.291016,1298.103760 4107.244629,1293.266602 4086.236084,1285.589844 
	C4064.619873,1277.691284 4044.015625,1267.023071 4021.869385,1257.072754 
	C4010.100830,1290.490967 3998.451172,1323.571899 3985.519287,1359.516724 
z"/>
<path fill="#021847" opacity="1.000000" stroke="none" 
	d="
M1894.830566,910.392944 
	C1897.417114,902.520264 1899.483887,896.194275 1901.859985,888.921631 
	C1905.275269,888.258972 1909.044312,886.892090 1912.814575,886.888550 
	C2028.785278,886.779846 2144.756104,886.800476 2260.727051,886.845337 
	C2262.659180,886.846130 2264.591309,887.392822 2266.443115,887.672546 
	C2270.059570,892.354431 2267.538574,896.639465 2266.191895,900.843872 
	C2243.456543,971.821899 2220.646240,1042.775879 2197.914062,1113.755005 
	C2155.702637,1245.556396 2113.535889,1377.372070 2071.341309,1509.178833 
	C2040.709717,1604.865234 2010.072266,1700.549805 1979.386108,1796.218872 
	C1978.385742,1799.337646 1976.823242,1802.276245 1975.211548,1806.021851 
	C1950.543701,1807.775146 1926.001465,1806.549805 1901.499512,1806.770630 
	C1876.841064,1806.992798 1852.179077,1806.819580 1827.518555,1806.819580 
	C1803.524536,1806.819580 1779.530640,1806.819580 1755.536621,1806.819580 
	C1730.876099,1806.819580 1706.215576,1806.873291 1681.555176,1806.804321 
	C1657.131592,1806.736206 1632.691162,1807.132446 1606.688477,1806.463867 
	C1607.819580,1800.714111 1608.183105,1796.854492 1609.345581,1793.252808 
	C1637.551758,1705.863281 1665.862061,1618.507324 1694.114502,1531.132812 
	C1728.301636,1425.404175 1762.447510,1319.662231 1796.620605,1213.928955 
	C1823.634644,1130.345825 1850.660400,1046.766357 1877.687622,963.187561 
	C1883.213257,946.099915 1888.768921,929.022034 1894.830566,910.392944 
z"/>
<path fill="#021847" opacity="1.000000" stroke="none" 
	d="
M3086.556641,2862.104492 
	C3031.777832,3032.856689 2977.614502,3202.098633 2923.392822,3371.321533 
	C2884.196289,3493.651855 2844.928955,3615.959473 2805.658447,3738.265869 
	C2803.836914,3743.939209 2801.671875,3749.502197 2799.226562,3756.349121 
	C2676.648682,3756.351318 2554.289307,3756.349365 2431.825195,3756.350342 
	C2431.825195,3752.489502 2431.322021,3750.361816 2431.896240,3748.581543 
	C2529.758301,3445.205811 2627.697266,3141.855225 2725.837402,2837.871338 
	C2730.024170,2837.323730 2733.862793,2836.385742 2737.701660,2836.383057 
	C2852.365967,2836.305176 2967.030518,2836.314453 3081.694824,2836.350098 
	C3084.984619,2836.351318 3088.274170,2836.791260 3093.144287,2837.139648 
	C3091.026367,2845.419678 3089.086670,2853.002930 3086.556641,2862.104492 
z"/>
<path fill="#031947" opacity="1.000000" stroke="none" 
	d="
M1576.059814,1668.303467 
	C1560.397827,1715.154907 1547.139648,1761.146606 1530.987427,1806.736084 
	C1464.717651,1806.736084 1399.422363,1806.748657 1334.127319,1806.669800 
	C1332.329834,1806.667603 1330.533813,1805.682129 1328.960327,1805.220581 
	C1328.545776,1803.508301 1327.681274,1802.075195 1328.018433,1801.029663 
	C1425.449829,1498.902832 1522.961182,1196.801636 1620.531128,894.719482 
	C1621.321655,892.271667 1622.933838,890.089172 1624.698364,886.776855 
	C1691.005249,886.787292 1757.388794,886.761658 1825.971924,886.799011 
	C1805.310669,954.153992 1784.045044,1018.480042 1763.540649,1083.039185 
	C1742.786621,1148.384644 1721.604736,1213.593994 1700.692505,1278.889282 
	C1679.989136,1343.532227 1659.435059,1408.222900 1638.729248,1472.864990 
	C1618.020752,1537.515381 1597.205688,1602.131836 1576.059814,1668.303467 
z"/>
<path fill="#031947" opacity="1.000000" stroke="none" 
	d="
M3119.057617,3639.268311 
	C3106.355225,3678.730957 3094.083740,3716.660645 3081.578125,3755.315186 
	C3058.612793,3757.454834 3036.041992,3756.053223 3013.529053,3756.302734 
	C2990.865479,3756.553955 2968.196533,3756.357910 2945.530029,3756.357910 
	C2922.916992,3756.357910 2900.303955,3756.357910 2877.572266,3756.357910 
	C2879.294678,3740.380127 3165.283447,2859.524658 3173.833740,2836.983887 
	C3240.131104,2836.983887 3306.686768,2836.983887 3373.052246,2836.983887 
	C3373.515137,2837.898193 3373.853516,2838.411865 3374.039307,2838.976074 
	C3374.244629,2839.599854 3374.548828,2840.332275 3374.397949,2840.909912 
	C3373.387207,2844.777832 3372.384766,2848.655273 3371.165283,2852.460693 
	C3287.285889,3114.223145 3203.386719,3375.979004 3119.057617,3639.268311 
z"/>
<path fill="#041A48" opacity="1.000000" stroke="none" 
	d="
M1172.140991,1806.840576 
	C1157.510132,1806.756714 1144.853638,1806.716553 1132.199707,1806.513672 
	C1131.080078,1806.495605 1129.977661,1805.417114 1128.866943,1804.829712 
	C1128.549438,1803.578125 1127.660767,1802.144043 1127.995605,1801.104126 
	C1225.885986,1497.173828 1323.860840,1193.270752 1422.020142,888.788818 
	C1435.986816,884.856934 1449.961304,887.241333 1463.715454,886.858887 
	C1478.365112,886.451538 1493.034912,886.729675 1507.695801,886.778137 
	C1521.593140,886.824036 1535.490112,886.960144 1548.668091,887.051575 
	C1549.588989,889.005371 1549.934570,889.515442 1550.065552,890.075684 
	C1550.215210,890.715515 1550.376343,891.464783 1550.187134,892.055969 
	C1453.448608,1194.307983 1356.682495,1496.551025 1259.879883,1798.782593 
	C1259.283081,1800.645508 1258.233154,1802.377441 1257.269897,1804.100586 
	C1256.971313,1804.635010 1256.259033,1804.938232 1253.827271,1806.840698 
	C1228.546753,1806.840698 1201.331299,1806.840698 1172.140991,1806.840576 
z"/>
<path fill="#041A48" opacity="1.000000" stroke="none" 
	d="
M3208.930176,3568.733398 
	C3249.287354,3443.707031 3289.168945,3320.199707 3329.153809,3196.725830 
	C3363.191162,3091.617432 3397.350098,2986.548340 3431.446045,2881.458740 
	C3436.155029,2866.945312 3440.810791,2852.414307 3445.359375,2838.299805 
	C3460.617920,2835.863770 3549.852051,2835.377441 3571.739990,2837.468018 
	C3572.069092,2838.749023 3572.977539,2840.217529 3572.635986,2841.286865 
	C3476.857178,3141.146484 3380.993896,3440.979492 3285.101074,3740.802734 
	C3283.497314,3745.817383 3281.504883,3750.707520 3279.837158,3755.264404 
	C3257.151123,3757.128662 3165.988281,3756.739014 3150.511719,3754.687012 
	C3153.859131,3733.542480 3162.689941,3714.051514 3168.586914,3693.753662 
	C3174.711670,3672.671875 3181.944580,3651.911621 3188.722900,3631.020508 
	C3195.295410,3610.762695 3201.905762,3590.517334 3208.930176,3568.733398 
z"/>
<path fill="#051B49" opacity="1.000000" stroke="none" 
	d="
M1350.953369,886.755127 
	C1356.072754,886.986267 1359.321045,887.215942 1362.207642,887.420044 
	C1362.951050,889.395508 1364.020508,890.749023 1363.728394,891.671143 
	C1267.074707,1196.740479 1168.643066,1501.238525 1071.250732,1806.247925 
	C1040.671997,1806.247925 1011.424011,1806.247925 980.792114,1806.247925 
	C981.262451,1802.266235 981.104309,1798.480957 982.196411,1795.099609 
	C1022.486755,1670.352539 1062.961914,1545.665283 1103.263062,1420.921631 
	C1141.110107,1303.774170 1178.757324,1186.562012 1216.557983,1069.399658 
	C1234.949219,1012.396118 1253.469727,955.434204 1272.010620,898.479248 
	C1273.216187,894.776001 1275.101562,891.294189 1277.089111,886.753662 
	C1301.196777,886.753662 1325.139526,886.753662 1350.953369,886.755127 
z"/>
<path fill="#051B49" opacity="1.000000" stroke="none" 
	d="
M3393.250732,3601.320557 
	C3432.219238,3480.835938 3470.568848,3361.827881 3509.065918,3242.867676 
	C3543.060547,3137.818604 3577.234131,3032.827148 3611.295654,2927.799561 
	C3619.706787,2901.864746 3627.950195,2875.875488 3636.367188,2849.942871 
	C3637.779785,2845.590088 3639.686035,2841.398193 3641.459229,2836.890625 
	C3670.497559,2836.890625 3699.036865,2836.890625 3728.178467,2836.890625 
	C3728.020752,2840.119141 3728.452393,2842.891602 3727.687744,2845.281250 
	C3630.616943,3148.673096 3533.458008,3452.036621 3436.217041,3755.670410 
	C3405.206543,3755.670410 3375.408691,3755.670410 3344.126465,3755.670410 
	C3359.319580,3703.632324 3377.262207,3653.613281 3393.250732,3601.320557 
z"/>
<path fill="#091E4B" opacity="1.000000" stroke="none" 
	d="
M980.116943,1608.362793 
	C961.213928,1667.527222 942.708679,1725.154419 924.170227,1782.770996 
	C921.748352,1790.298218 919.155945,1797.770630 916.308228,1806.265869 
	C907.783142,1806.488647 899.952820,1807.004395 892.140686,1806.805908 
	C884.955261,1806.623291 877.579651,1808.271362 870.399841,1805.356934 
	C870.399841,1803.271729 869.916321,1801.227661 870.468201,1799.517822 
	C968.490540,1495.821899 1066.586792,1192.149780 1164.627563,888.640015 
	C1172.588867,885.369019 1179.983398,886.826233 1187.136108,886.795776 
	C1194.250366,886.765503 1201.600464,885.542297 1207.545410,887.634705 
	C1208.753784,889.468445 1209.299194,889.959412 1209.388672,890.522766 
	C1209.485962,891.135559 1209.166870,891.817383 1209.016235,892.466064 
	C1208.714844,893.763550 1208.477905,895.081421 1208.085938,896.351318 
	C1206.125977,902.702454 1204.161377,909.052490 1202.132690,915.381958 
	C1128.261108,1145.863525 1054.382202,1376.342773 980.116943,1608.362793 
z"/>
<path fill="#091E4B" opacity="1.000000" stroke="none" 
	d="
M3631.275391,3314.776367 
	C3682.872070,3154.976562 3734.018311,2996.697754 3785.312988,2837.960205 
	C3800.028809,2834.667236 3814.508057,2836.566650 3830.364746,2836.697998 
	C3828.803955,2843.226074 3827.825439,2848.937012 3826.075684,2854.401123 
	C3783.459961,2987.481934 3740.710693,3120.519531 3698.090820,3253.598877 
	C3647.561279,3411.376953 3597.141357,3569.190186 3546.632568,3726.974854 
	C3543.614014,3736.403564 3540.231689,3745.716064 3536.846680,3755.584473 
	C3521.025391,3755.584473 3505.918457,3755.584473 3490.711670,3755.584473 
	C3493.188965,3739.741943 3574.294922,3485.638672 3631.275391,3314.776367 
z"/>
<path fill="#FBFCFC" opacity="1.000000" stroke="none" 
	d="
M3520.362793,1196.762939 
	C3571.761475,1199.779541 3621.855469,1208.827759 3669.283447,1229.667358 
	C3677.093262,1233.098999 3684.290771,1237.923584 3691.421631,1241.909180 
	C3688.775146,1258.154663 3640.431152,1401.685791 3632.007324,1418.475220 
	C3625.767822,1416.897461 3620.343506,1413.185059 3614.607422,1410.220581 
	C3578.497559,1391.559326 3541.331787,1375.610352 3501.420166,1366.954590 
	C3492.362305,1364.990112 3483.088867,1364.022339 3471.298584,1361.525146 
	C3468.867676,1356.743530 3468.285400,1352.790161 3469.367920,1349.362427 
	C3474.646240,1332.649536 3480.505615,1316.120850 3485.849365,1299.427612 
	C3487.411377,1294.548340 3487.952393,1289.342041 3488.960938,1284.285522 
	C3488.960938,1284.285522 3488.433594,1284.294678 3489.704590,1283.779297 
	C3491.636475,1279.602783 3492.296875,1275.941772 3492.957275,1272.280762 
	C3492.957275,1272.280762 3492.429688,1272.295288 3493.702637,1271.779541 
	C3495.636475,1267.602661 3496.296875,1263.941772 3496.957275,1260.280762 
	C3496.957275,1260.280762 3496.442627,1260.333862 3497.736816,1259.810059 
	C3499.681152,1255.638062 3500.331299,1251.989624 3500.981689,1248.341309 
	C3500.981689,1248.341309 3500.483643,1248.337524 3501.757324,1247.812012 
	C3503.681152,1243.638062 3504.331543,1239.989624 3504.981689,1236.341309 
	C3504.981689,1236.341309 3504.483643,1236.337524 3505.757324,1235.812012 
	C3507.681396,1231.638062 3508.331543,1227.989624 3508.981689,1224.341309 
	C3508.981689,1224.341309 3508.483643,1224.337524 3509.757324,1223.812012 
	C3511.681396,1219.638062 3512.331543,1215.989746 3512.981934,1212.341309 
	C3512.981689,1212.341309 3512.471680,1212.341431 3513.690918,1211.906616 
	C3516.727783,1206.568848 3518.545166,1201.665894 3520.362793,1196.762939 
z"/>
<path fill="#FCFCFC" opacity="1.000000" stroke="none" 
	d="
M3892.375732,1160.986328 
	C3890.554199,1168.019165 3889.155273,1175.194214 3886.843506,1182.062012 
	C3870.510254,1230.583984 3854.002686,1279.047241 3837.512207,1327.516113 
	C3835.603271,1333.126221 3833.458984,1338.656250 3831.111084,1345.078735 
	C3819.085205,1339.714478 3810.490479,1331.294800 3802.136719,1323.149780 
	C3770.972900,1292.765381 3736.806641,1266.486816 3699.043213,1244.859741 
	C3697.974609,1244.247925 3697.267334,1243.005737 3695.279785,1240.853394 
	C3716.886230,1181.789307 3738.749268,1122.023682 3760.601074,1062.289185 
	C3791.817383,1072.693115 3852.918701,1115.705933 3891.620361,1156.241943 
	C3892.177246,1159.464233 3892.276367,1160.225220 3892.375732,1160.986328 
z"/>
<path fill="#FBFCFC" opacity="1.000000" stroke="none" 
	d="
M3768.240234,1528.645752 
	C3763.646240,1543.865112 3759.415039,1559.205444 3754.387207,1574.279907 
	C3741.771973,1612.103638 3728.806152,1649.810303 3715.952637,1687.554321 
	C3714.456787,1691.945923 3712.778809,1696.275757 3710.811035,1701.658203 
	C3706.888184,1700.115234 3702.947510,1699.400024 3700.027344,1697.279419 
	C3682.826172,1684.788208 3664.909180,1673.046265 3649.052979,1658.997803 
	C3627.608154,1639.998291 3606.296631,1621.006226 3582.323242,1605.207153 
	C3580.706787,1604.142090 3579.406738,1602.596924 3576.840088,1600.252563 
	C3595.608398,1541.945190 3614.491455,1483.280640 3633.384277,1424.585693 
	C3659.663330,1434.225220 3722.148926,1479.700317 3767.617432,1524.105713 
	C3768.112549,1527.213989 3768.176514,1527.929932 3768.240234,1528.645752 
z"/>
<path fill="#FBFBFC" opacity="1.000000" stroke="none" 
	d="
M3392.099854,1541.892456 
	C3339.454346,1536.633911 3287.364990,1541.331787 3236.925049,1551.412109 
	C3234.979980,1550.330322 3234.148193,1550.143555 3233.947998,1549.682617 
	C3233.722900,1549.163818 3234.019531,1548.386475 3234.172119,1547.741089 
	C3235.092529,1543.858521 3235.766113,1539.892334 3237.012939,1536.116089 
	C3255.552002,1479.968140 3274.168457,1423.845581 3292.623291,1368.149048 
	C3316.443115,1359.626343 3390.255859,1359.116821 3448.536621,1362.737549 
	C3451.252930,1366.721802 3452.038330,1370.137329 3451.093018,1372.976929 
	C3434.085205,1424.068726 3416.930176,1475.112183 3399.605469,1526.097412 
	C3397.742676,1531.579590 3394.631836,1536.637695 3392.099854,1541.892456 
z"/>
<path fill="#FBFCFC" opacity="1.000000" stroke="none" 
	d="
M3628.491211,877.112793 
	C3649.162842,874.168762 3669.552734,877.833679 3689.892578,880.330383 
	C3728.371582,885.053589 3765.269287,895.488586 3799.742676,913.645020 
	C3802.059570,914.865295 3804.236328,916.361633 3806.417725,917.819946 
	C3806.929199,918.161987 3807.194580,918.872314 3807.572998,919.413208 
	C3804.998291,934.095032 3768.082275,1039.590210 3759.253906,1056.944580 
	C3755.247070,1055.640015 3750.961670,1054.451782 3746.828613,1052.866577 
	C3715.142578,1040.714478 3682.858398,1031.047241 3649.035889,1026.634644 
	C3627.116455,1023.774963 3605.416992,1023.160461 3582.000732,1026.072021 
	C3586.348633,1006.460205 3592.421875,988.202515 3598.382568,969.908142 
	C3608.456299,938.988586 3618.458740,908.045776 3628.491211,877.112793 
z"/>
<path fill="#FBFBFC" opacity="1.000000" stroke="none" 
	d="
M3772.223145,1523.981079 
	C3789.513184,1473.033691 3806.736572,1422.063477 3824.173096,1371.166260 
	C3826.465576,1364.474121 3827.128174,1356.870728 3832.462402,1351.778931 
	C3854.585449,1363.771973 3875.625977,1376.441528 3897.745605,1386.808838 
	C3919.231445,1396.879150 3941.824219,1404.587769 3963.829346,1413.293335 
	C3958.398193,1434.685547 3910.289307,1569.119995 3903.425781,1582.298706 
	C3863.724121,1577.411255 3807.117920,1552.255249 3773.068359,1524.335571 
	C3771.948242,1523.806274 3772.223145,1523.981079 3772.223145,1523.981079 
z"/>
<path fill="#FBFCFC" opacity="1.000000" stroke="none" 
	d="
M3511.112793,1194.070312 
	C3458.132568,1190.949463 3405.132080,1190.314209 3351.949707,1193.952637 
	C3353.832520,1179.947876 3388.464355,1071.985229 3399.818604,1044.299805 
	C3426.031250,1038.797241 3453.395264,1040.317627 3480.342041,1037.474121 
	C3506.764893,1034.686035 3533.401855,1033.929688 3561.669678,1033.738037 
	C3563.105469,1036.486572 3562.925781,1037.814941 3562.511475,1039.065552 
	C3545.391602,1090.738159 3528.250977,1142.403809 3511.112793,1194.070312 
z"/>
<path fill="#FBFBFC" opacity="1.000000" stroke="none" 
	d="
M4219.833496,1443.682129 
	C4234.221680,1443.682129 4246.644531,1443.682129 4260.834473,1443.682129 
	C4244.788574,1495.421997 4228.589844,1545.157349 4212.553223,1594.851562 
	C4161.939941,1598.920166 4112.811523,1600.031860 4063.618652,1598.555298 
	C4060.429932,1598.459717 4057.278320,1597.135376 4055.134766,1596.626099 
	C4053.848633,1595.200684 4053.208740,1594.783813 4053.041016,1594.224976 
	C4052.865234,1593.640625 4053.024170,1592.877563 4053.240967,1592.264648 
	C4070.743896,1542.749390 4088.257324,1493.237915 4105.845703,1443.752930 
	C4106.255371,1442.599487 4107.521973,1441.750854 4108.269531,1440.897339 
	C4144.881836,1441.827759 4181.375000,1442.755005 4219.833496,1443.682129 
z"/>
<path fill="#FBFCFC" opacity="1.000000" stroke="none" 
	d="
M3955.801758,1757.177490 
	C3903.405518,1757.156250 3866.647949,1753.610840 3848.317139,1746.643311 
	C3867.080811,1693.761108 3885.854980,1640.849854 3904.999512,1586.894531 
	C3928.732910,1590.760376 3951.430420,1595.003906 3974.289551,1598.027832 
	C3997.306641,1601.072632 4020.484131,1602.905273 4044.240234,1605.335449 
	C4044.240234,1607.792480 4044.910156,1610.493042 4044.141602,1612.690796 
	C4027.512451,1660.250732 4010.723145,1707.754761 3993.696045,1756.031372 
	C3981.520996,1758.279297 3969.580078,1756.709229 3955.801758,1757.177490 
z"/>
<path fill="#FBFBFC" opacity="1.000000" stroke="none" 
	d="
M4328.994629,1140.709351 
	C4339.842773,1140.387207 4348.284668,1134.010010 4359.089355,1137.359131 
	C4342.219238,1190.035767 4325.464355,1242.352539 4308.941895,1293.943237 
	C4259.760254,1304.616699 4189.513184,1307.814941 4158.202637,1300.732544 
	C4158.388672,1298.523315 4158.099121,1295.976929 4158.861328,1293.798340 
	C4174.198730,1249.945068 4189.647949,1206.130493 4205.142090,1162.332153 
	C4205.557617,1161.157837 4206.727051,1160.250610 4208.477539,1158.042480 
	C4247.730957,1154.837402 4287.829590,1149.974243 4328.994629,1140.709351 
z"/>
<path fill="#FBFBFC" opacity="1.000000" stroke="none" 
	d="
M3986.160156,1358.084717 
	C3998.451172,1323.571899 4010.100830,1290.490967 4021.869385,1257.072754 
	C4044.015625,1267.023071 4064.619873,1277.691284 4086.236084,1285.589844 
	C4107.244629,1293.266602 4129.291016,1298.103760 4150.908691,1304.195312 
	C4149.619629,1317.810425 4124.704102,1391.341919 4106.522949,1435.088989 
	C4082.759033,1438.563599 3997.914062,1423.245728 3967.934326,1409.807983 
	C3973.772949,1393.110107 3979.646240,1376.313354 3986.160156,1358.084717 
z"/>
<path fill="#F9FAFB" opacity="1.000000" stroke="none" 
	d="
M3893.667969,1160.226685 
	C3892.276367,1160.225220 3892.177246,1159.464233 3891.977539,1157.556396 
	C3898.309814,1156.383667 3898.582764,1150.927002 3900.030029,1146.812256 
	C3907.971924,1124.230103 3915.733154,1101.584351 3923.593262,1078.973267 
	C3927.492432,1067.755249 3931.470215,1056.564575 3935.826172,1044.185913 
	C3943.670166,1048.258423 3947.269287,1054.709839 3951.931152,1059.812866 
	C3973.572998,1083.503540 3996.576416,1105.623779 4024.104492,1122.448242 
	C4035.403564,1129.354126 4047.245605,1135.371094 4058.779541,1141.758545 
	C4057.131104,1154.789307 4040.769287,1202.431030 4021.058105,1251.524048 
	C4017.551270,1249.762207 4013.950195,1248.324341 4010.734131,1246.280640 
	C3974.662842,1223.357666 3941.783203,1196.270386 3909.331055,1168.606812 
	C3905.047607,1164.955322 3901.930420,1159.048096 3893.667969,1160.226685 
z"/>
<path fill="#161C29" opacity="1.000000" stroke="none" 
	d="
M3392.443359,1543.017090 
	C3394.631836,1536.637695 3397.742676,1531.579590 3399.605469,1526.097412 
	C3416.930176,1475.112183 3434.085205,1424.068726 3451.093018,1372.976929 
	C3452.038330,1370.137329 3451.252930,1366.721802 3450.196777,1362.357910 
	C3457.915527,1360.487549 3461.356445,1354.441528 3463.770020,1347.020996 
	C3468.906250,1331.226929 3474.131592,1315.458252 3479.625732,1299.786133 
	C3481.354736,1294.854370 3484.055908,1290.263428 3487.636475,1284.900879 
	C3487.952393,1289.342041 3487.411377,1294.548340 3485.849365,1299.427612 
	C3480.505615,1316.120850 3474.646240,1332.649536 3469.367920,1349.362427 
	C3468.285400,1352.790161 3468.867676,1356.743530 3469.707275,1361.707031 
	C3461.863037,1363.551636 3458.599854,1369.731445 3456.190430,1377.113281 
	C3449.600098,1397.304199 3442.827393,1417.435669 3436.098145,1437.581299 
	C3425.583984,1469.058228 3415.084473,1500.539917 3404.477051,1531.985352 
	C3403.003174,1536.354980 3401.377441,1540.787964 3399.010986,1544.701172 
	C3397.453857,1547.275513 3394.630371,1547.115967 3392.443359,1543.017090 
z"/>
<path fill="#1B2230" opacity="1.000000" stroke="none" 
	d="
M3511.382568,1195.931152 
	C3528.250977,1142.403809 3545.391602,1090.738159 3562.511475,1039.065552 
	C3562.925781,1037.814941 3563.105469,1036.486572 3563.422363,1033.702881 
	C3570.933105,1034.875000 3572.314453,1036.312256 3571.037354,1040.810425 
	C3569.769531,1045.275635 3568.269775,1049.682739 3566.697754,1054.052734 
	C3561.306641,1069.037842 3555.772217,1083.971558 3550.415771,1098.968994 
	C3541.709717,1123.345459 3532.898193,1147.687866 3524.582764,1172.197754 
	C3522.273926,1179.002930 3521.558105,1186.348389 3520.237061,1195.104492 
	C3518.545166,1201.665894 3516.727783,1206.568848 3513.780762,1212.145386 
	C3512.318115,1207.809937 3511.985107,1202.800903 3511.382568,1195.931152 
z"/>
<path fill="#1B2230" opacity="1.000000" stroke="none" 
	d="
M3628.315430,875.919922 
	C3618.458740,908.045776 3608.456299,938.988586 3598.382568,969.908142 
	C3592.421875,988.202515 3586.348633,1006.460205 3580.354980,1026.225098 
	C3572.961426,1024.979492 3571.544189,1023.582031 3573.005859,1019.099548 
	C3579.334717,999.691650 3585.689941,980.289246 3592.342285,960.990662 
	C3601.351562,934.854797 3610.605469,908.803040 3619.850342,882.749207 
	C3621.154297,879.074219 3622.998779,875.590881 3624.593018,872.018799 
	C3625.775146,872.921570 3626.957520,873.824402 3628.315430,875.919922 
z"/>
<path fill="#161C29" opacity="1.000000" stroke="none" 
	d="
M3491.665039,1272.955322 
	C3492.296875,1275.941772 3491.636475,1279.602783 3489.789551,1284.028809 
	C3489.193359,1281.072388 3489.782959,1277.351074 3491.665039,1272.955322 
z"/>
<path fill="#161C29" opacity="1.000000" stroke="none" 
	d="
M3495.665039,1260.955200 
	C3496.296875,1263.941772 3495.636475,1267.602661 3493.790039,1272.028564 
	C3493.193604,1269.072266 3493.783203,1265.350952 3495.665039,1260.955200 
z"/>
<path fill="#1B2230" opacity="1.000000" stroke="none" 
	d="
M3499.692383,1249.011475 
	C3500.331299,1251.989624 3499.681152,1255.638062 3497.846191,1260.044678 
	C3497.241943,1257.095825 3497.822510,1253.388672 3499.692383,1249.011475 
z"/>
<path fill="#1B2230" opacity="1.000000" stroke="none" 
	d="
M3503.692383,1237.011475 
	C3504.331543,1239.989624 3503.681152,1243.638062 3501.846191,1248.044678 
	C3501.241943,1245.095825 3501.822510,1241.388672 3503.692383,1237.011475 
z"/>
<path fill="#1B2230" opacity="1.000000" stroke="none" 
	d="
M3507.692383,1225.011475 
	C3508.331543,1227.989624 3507.681396,1231.638062 3505.846191,1236.044678 
	C3505.241943,1233.095825 3505.822510,1229.388672 3507.692383,1225.011475 
z"/>
<path fill="#1B2230" opacity="1.000000" stroke="none" 
	d="
M3511.692383,1213.011475 
	C3512.331543,1215.989746 3511.681396,1219.638062 3509.846191,1224.044678 
	C3509.241943,1221.095825 3509.822510,1217.388672 3511.692383,1213.011475 
z"/>
<path fill="#FBFBFC" opacity="1.000000" stroke="none" 
	d="
M3769.019775,1527.936157 
	C3768.176514,1527.929932 3768.112549,1527.213989 3767.969727,1525.422729 
	C3768.634033,1524.537354 3769.377197,1524.727051 3771.171631,1524.448975 
	C3772.223145,1523.981079 3771.948242,1523.806274 3771.871826,1523.657837 
	C3771.130127,1524.748413 3770.464600,1525.987549 3769.019775,1527.936157 
z"/>
</svg>